<?xml version="1.0" encoding="utf-8"?>
<!-- Generator: Adobe Illustrator 19.1.0, SVG Export Plug-In . SVG Version: 6.00 Build 0)  -->
<svg version="1.0" xmlns="http://www.w3.org/2000/svg" xmlns:xlink="http://www.w3.org/1999/xlink" x="0px" y="0px"
	 viewBox="0 0 60 40" enable-background="new 0 0 60 40" xml:space="preserve">
<g id="Advertising" display="none">
	<path display="inline" fill="#676767" d="M56.7,3.5H41.1V0h-9.5v3.5H21.1V0h-9.5v3.5H3.5C2.9,3.5,2.4,4,2.4,4.6v22.1v2.8v2.8h8v7.2
		c0,0.2,0.2,0.4,0.4,0.4H14c0.2,0,0.4-0.2,0.4-0.4v-7.2h31.4v7.2c0,0.2,0.2,0.4,0.4,0.4h3.1c0.2,0,0.4-0.2,0.4-0.4v-7.2h7.9v-2.8
		v-2.8V4.6C57.8,4,57.3,3.5,56.7,3.5 M33.3,1.7h6.1v1.8h-6.1L33.3,1.7z M13.3,1.7h6.1v1.8h-6.1L13.3,1.7z M4.5,26.7V5.7h14.8v2.6
		h-3.4v4.3h8.5V8.3h-3.4V5.7h18.3v2.6H36v4.3h8.5V8.3h-3.4V5.7h14.5v21.1L4.5,26.7L4.5,26.7z"/>
</g>
<g id="Brochures_1_" display="none">
	<g display="inline">
		<path fill="#676767" d="M53.3,17.4l-2.9-2.6v-10c0-0.3-0.1-0.6-0.4-0.8c-0.2-0.2-0.5-0.2-0.8-0.2l-1.4,0.3V1
			c0-0.3-0.2-0.6-0.5-0.8c-0.3-0.2-0.6-0.2-0.9,0L29.8,8.3L13.1,0.1c-0.3-0.1-0.7-0.1-0.9,0c-0.3,0.2-0.5,0.5-0.5,0.8v3.1l-1-0.2
			c-0.3-0.1-0.6,0-0.8,0.2C9.7,4.3,9.6,4.5,9.6,4.8v10l-2.9,2.6c-0.4,0.4-0.4,1-0.1,1.4c0.4,0.4,1,0.4,1.4,0.1l4.4-3.8
			c0.1,0,0.2,0.1,0.3,0.3c0.1,0.1,0.1,0.2,0.2,0.2l-3.5,3.4c-0.4,0.4-0.4,1,0,1.4c0,0,0,0,0,0c0,0.1,0.1,0.1,0.2,0.2
			c0.4,0.4,1,0.4,1.4,0l3.9-4c0.1,0,0.2,0.1,0.3,0.3c0.2,0.2,0.2,0.4,0.3,0.5l-3.9,4c-0.1,0.1-0.1,0.2-0.2,0.2l0,0
			c-0.4,0.4-0.4,1,0,1.4c0.4,0.4,1,0.4,1.4,0l3-2.9c0.1,0,0.2,0.1,0.3,0.3c0.2,0.2,0.2,0.4,0.3,0.5l-3,3c-0.1,0.1-0.1,0.1-0.2,0.2
			l-0.7,0.6c-0.4,0.4-0.4,1,0,1.4c0.4,0.4,1,0.4,1.4,0l3-2.9c0.1,0,0.2,0.1,0.3,0.3c0.2,0.2,0.2,0.4,0.3,0.5l-3,3
			c-0.1,0.1-0.1,0.2-0.2,0.3c0,0-1.3,2.5-3.3,2.5c-0.5,0-1,0.4-1,1c0,0.1,0,0.1,0,0.2c0,0.1,0,0.1,0,0.2v3.4c0,0.4,0.3,0.8,0.7,0.9
			L29.8,40c0,0,0,0,0,0c0.1,0,0.1,0,0.2,0c0.1,0,0.1,0,0.2,0c0,0,0,0,0,0l19.5-4.7c0.4-0.1,0.7-0.5,0.7-0.9v-3.4c0-0.1,0-0.1,0-0.2
			c0-0.1,0-0.1,0-0.2c0-0.5-0.4-1-1-1c-2,0-3.3-2.5-3.3-2.5c0-0.1-0.1-0.2-0.2-0.3l-3-3c0-0.1,0.1-0.3,0.3-0.5
			c0.1-0.1,0.2-0.2,0.3-0.3l3,2.9c0.4,0.4,1,0.4,1.4,0c0.4-0.4,0.4-1,0-1.4L47.2,24c0-0.1-0.1-0.1-0.2-0.2l-3-3
			c0-0.1,0.1-0.3,0.2-0.5c0.1-0.1,0.2-0.2,0.3-0.3l3,2.9c0.4,0.4,1,0.4,1.4,0s0.4-1,0-1.4l0,0c0-0.1-0.1-0.2-0.2-0.2l-3.9-4
			c0-0.1,0.1-0.3,0.2-0.5c0.1-0.1,0.2-0.2,0.3-0.3l3.9,4c0.4,0.4,1,0.4,1.4,0c0.1-0.1,0.1-0.1,0.2-0.2c0,0,0,0,0,0
			c0.4-0.4,0.4-1,0-1.4l-3.5-3.4c0,0,0.1-0.1,0.1-0.2c0.1-0.1,0.2-0.2,0.3-0.3l4.4,3.8c0.4,0.4,1,0.3,1.4-0.1
			C53.8,18.3,53.7,17.7,53.3,17.4z M45.9,4.7l-8.5,2.1l8.5-4.2V4.7z M13.7,2.5l8.1,4l-8.1-2C13.7,4.6,13.7,2.5,13.7,2.5z M11.5,31.3
			c2.2-0.5,3.6-2.7,3.9-3.3l3-2.9c0.7-0.7,0.7-2-0.2-3c-0.2-0.2-0.3-0.3-0.5-0.5c0.3-0.7,0.2-1.7-0.5-2.6c-0.2-0.2-0.4-0.4-0.5-0.5
			c0.7-0.7,0.6-2-0.2-3c-0.5-0.6-1.1-1-1.8-1c-0.1,0-0.1,0-0.2,0c-0.1-0.2-0.2-0.4-0.4-0.5c-0.5-0.6-1.1-1-1.8-1
			c-0.3,0-0.6,0-0.8,0.2V6.1l17.4,4.2c0,0,0.1,0.1,0.1,0.1v27.5l-17.5-4.2L11.5,31.3L11.5,31.3z M47.7,13c-0.6,0-1.3,0.4-1.8,1
			c-0.1,0.2-0.3,0.4-0.4,0.5c-0.1,0-0.1,0-0.2,0c-0.6,0-1.3,0.4-1.8,1c-0.9,1-0.9,2.3-0.2,3l0,0c-0.2,0.1-0.4,0.3-0.5,0.5
			c-0.7,0.8-0.9,1.8-0.5,2.6c-0.2,0.1-0.3,0.3-0.5,0.5c-0.9,1-0.9,2.3-0.2,3l3,2.9c0.3,0.6,1.7,2.7,3.9,3.3v2.2L31,37.8V10.3
			l17.5-4.2v7.1C48.2,13.1,48,13,47.7,13z"/>
		<path fill="#676767" d="M45.1,11.1l-12.3,3c-0.5,0.1-0.8,0.6-0.7,1.2c0.1,0.4,0.5,0.7,0.9,0.7c0.1,0,0.2,0,0.2,0l12.3-3
			c0.5-0.1,0.8-0.6,0.7-1.2C46.2,11.3,45.7,10.9,45.1,11.1z"/>
		<path fill="#676767" d="M33,24c0.1,0,0.2,0,0.2,0l5.9-1.4c0.5-0.1,0.8-0.6,0.7-1.2s-0.6-0.8-1.2-0.7l-5.9,1.4
			c-0.5,0.1-0.8,0.6-0.7,1.2C32.2,23.7,32.6,24,33,24z"/>
		<path fill="#676767" d="M33,26.8c0.1,0,0.2,0,0.2,0l4.9-1.2c0.5-0.1,0.8-0.6,0.7-1.2c-0.1-0.5-0.6-0.8-1.2-0.7l-4.9,1.2
			c-0.5,0.1-0.8,0.6-0.7,1.2C32.2,26.5,32.6,26.8,33,26.8z"/>
		<path fill="#676767" d="M39.5,26.3l-6.7,1.6c-0.5,0.1-0.8,0.6-0.7,1.2c0.1,0.4,0.5,0.7,0.9,0.7c0.1,0,0.2,0,0.2,0l6.7-1.6
			c0.5-0.1,0.8-0.6,0.7-1.2C40.6,26.5,40,26.2,39.5,26.3z"/>
		<path fill="#676767" d="M27.2,22.1l-5.9-1.4c-0.5-0.1-1,0.2-1.2,0.7c-0.1,0.5,0.2,1,0.7,1.2l5.9,1.4c0.1,0,0.2,0,0.2,0
			c0.4,0,0.8-0.3,0.9-0.7C28,22.7,27.7,22.2,27.2,22.1z"/>
		<path fill="#676767" d="M27.2,24.9l-4.9-1.2c-0.5-0.1-1,0.2-1.2,0.7c-0.1,0.5,0.2,1,0.7,1.2l4.9,1.2c0.1,0,0.2,0,0.2,0
			c0.4,0,0.8-0.3,0.9-0.7C28,25.6,27.7,25.1,27.2,24.9z"/>
		<path fill="#676767" d="M27.2,27.9l-6.7-1.6c-0.5-0.1-1,0.2-1.2,0.7c-0.1,0.5,0.2,1,0.7,1.2l6.7,1.6c0.1,0,0.2,0,0.2,0
			c0.4,0,0.8-0.3,0.9-0.7C28,28.6,27.7,28,27.2,27.9z"/>
		<path fill="#676767" d="M38.1,31.8l-5.3,1.3c-0.5,0.1-0.8,0.6-0.7,1.2c0.1,0.4,0.5,0.7,0.9,0.7c0.1,0,0.2,0,0.2,0l5.3-1.3
			c0.5-0.1,0.8-0.6,0.7-1.2C39.1,32,38.6,31.7,38.1,31.8z"/>
		<path fill="#676767" d="M26.5,33.1l-10.8-2.6c-0.5-0.1-1,0.2-1.2,0.7c-0.1,0.5,0.2,1,0.7,1.2L26,34.9c0.1,0,0.2,0,0.2,0
			c0.4,0,0.8-0.3,0.9-0.7C27.3,33.7,27,33.2,26.5,33.1z"/>
		<path fill="#676767" d="M33,13.3c0.1,0,0.2,0,0.2,0l2.8-0.7c0.5-0.1,0.8-0.6,0.7-1.2c-0.1-0.5-0.6-0.8-1.2-0.7l-2.8,0.7
			c-0.5,0.1-0.8,0.6-0.7,1.2C32.2,13,32.6,13.3,33,13.3z"/>
	</g>
</g>
<g id="Logos" display="none">
	<g display="inline">
		<g>
			<g>
				<path fill="#676767" d="M48.3,4.4l-4.1-4.1c-0.4-0.4-1.2-0.4-1.6,0l-0.7,0.8l-2.2,2.2l-0.8,0.8L27.6,15.3c0,0-0.1,0.1-0.1,0.2
					c0,0,0,0.1-0.1,0.1l0,0l-3.1,7.1c-0.2,0.4-0.1,0.9,0.2,1.2c0.2,0.2,0.5,0.4,0.8,0.4c0.1,0,0.3,0,0.4-0.1l7.1-3.1
					c0.1,0,0.1,0,0.2-0.1c0,0,0,0,0.1-0.1s0,0,0.1-0.1L45.3,8.9l2.2-2.2l0.8-0.8c0.2-0.2,0.4-0.5,0.4-0.8
					C48.6,4.9,48.5,4.6,48.3,4.4z M27.5,21.1l1.2-3l1.7,1.7L27.5,21.1z M32.5,18.6L30,16.1L40.5,5.7l0,0c0,0,0,0,0,0l0,0l2.5,2.5
					L32.5,18.6z M44.5,6.5l-2.5-2.5l1.3-1.3l2.5,2.5L44.5,6.5z"/>
				<path fill="#676767" d="M27.4,15.6L27.4,15.6L27.4,15.6C27.4,15.7,27.4,15.6,27.4,15.6z"/>
				<path fill="#676767" d="M40.5,5.6L40.5,5.6L40.5,5.6C40.5,5.7,40.5,5.7,40.5,5.6z"/>
			</g>
		</g>
		<g>
			<path fill="#676767" d="M25.6,39.9h-5.1c-0.6,0-1.2-0.5-1.2-1.2c0-0.6,0.5-1.2,1.2-1.2h5.1c1.6,0,2.8-1.2,2.8-2.8
				c0-1.6-1.2-2.8-2.8-2.8h-9.1c-2.8,0-5.1-2.3-5.1-5.1c0-2.8,2.3-5.1,5.1-5.1h3c0.6,0,1.2,0.5,1.2,1.2c0,0.6-0.5,1.2-1.2,1.2h-3
				c-1.6,0-2.8,1.2-2.8,2.8c0,1.6,1.2,2.8,2.8,2.8h9.1c2.8,0,5.1,2.3,5.1,5.1S28.4,39.9,25.6,39.9z"/>
		</g>
		<g>
			<path fill="#676767" d="M40.5,5.6L40.5,5.6L40.5,5.6C40.5,5.7,40.5,5.7,40.5,5.6z"/>
		</g>
	</g>
</g>
<g id="Social" display="none">
	<g transform="translate(0.000000,2000.000000) scale(0.100000,-0.100000)" display="inline">
		<path fill="#676767" d="M238.9,19999.8c-6.6-1-12.7-4.1-17.6-8.7c-5.8-5.5-9.4-12.9-10.2-20.9c-0.2-1.9-0.3-12.4-0.2-29.8
			l0.1-26.8l6.8-0.1c3.7-0.1,7.2,0,7.7,0.1l0.9,0.2v28c0,27.5,0,28.1,0.6,30.1c1.3,4.7,4.8,9,9.2,11.1c4.5,2.2-10.3,2,152.3,1.9
			l145.9-0.1l2.2-0.8c4.9-1.7,8.2-4.6,10.5-9.2c2.1-4.2,1.9,2.7,1.8-90.4c-0.1-77.8-0.1-83.6-0.5-85c-2-6.3-6.6-10.9-12.9-12.7
			c-1.5-0.4-3.6-0.5-19.7-0.6l-18-0.1l-0.1-25.2l-0.1-25.2l-10.4,10.7c-5.7,5.8-13.2,13.5-16.7,17.1c-3.4,3.5-9.8,10.1-14.2,14.6
			l-7.9,8.1h-18.9h-18.9v-7.7v-7.7l15.7,0h15.6l12.5-12.9c28.2-29,33.9-34.9,40.3-41.3c6.5-6.5,6.7-6.7,8.3-7.2c3-0.9,5.9,0,8,2.3
			c2,2.3,1.9,0.9,1.9,31.5v27.5l11.1,0.1c8.7,0.1,11.5,0.2,13.1,0.6c13.4,2.9,23.1,12.3,26.3,25.8c0.5,2,0.5,6.1,0.6,87.2
			c0.1,93.6,0.2,87.7-1.6,93.1c-4.1,12.2-14.2,20.5-27.3,22.5c-1.2,0.2-51.6,0.3-147.9,0.2
			C267.1,20000.2,240.9,20000.1,238.9,19999.8z"/>
		<path fill="#676767" d="M64.4,19892.7c-13-2.4-23.1-11.6-26.6-24.5l-0.8-2.7v-86.8c0-71.4,0.1-87.1,0.4-88.3
			c1.6-6.8,4.2-11.7,8.6-16.2c4.7-4.9,9.4-7.6,16.2-9.5c1.9-0.5,3-0.6,12.1-0.7c5.5-0.1,12-0.1,14.3-0.2l4.3-0.1l0.1-28.7
			c0.2-32.2,0-29.7,2.3-32.1c2.6-2.6,6.5-3,9.6-0.9c0.6,0.4,8.5,8.2,17.6,17.2s22.9,22.8,30.7,30.5l14.2,14.1H264
			c63,0,97,0.1,98.1,0.3c14.2,2.3,25.6,13.8,27.6,28c0.2,1.6,0.3,25.6,0.2,87.8l-0.1,85.6l-0.7,2.6c-1.6,5.7-4.3,10.5-8.1,14.6
			c-4.5,4.8-10.1,8-17.2,9.9c-1.7,0.4-12.7,0.4-149.6,0.5C89.9,19893.1,66.2,19893,64.4,19892.7z M361.2,19877.3
			c5-1.3,9.4-4.7,11.6-9.2c2.1-4.4,2,3.2,2-89.8c0-81.6,0-83.6-0.5-85.6c-1.7-6.5-6.7-11.5-13-13.2c-1.5-0.4-12.3-0.4-100.8-0.4
			h-99.2l-26.3-26.2l-26.4-26.1l-0.1,26.1l-0.1,26.2H87.9c-19.9,0-20.6,0-22.6,0.6c-2.7,0.8-5.2,2.1-7.4,4.2c-2.2,2.1-3.6,4.1-4.7,7
			l-0.9,2.3l-0.1,84.3c-0.1,94.4-0.3,86.2,2,90.7c2.2,4.3,6.5,7.8,11.4,9.1c2,0.5,5.3,0.5,147.7,0.5
			C357.5,19877.8,359.1,19877.8,361.2,19877.3z"/>
	</g>
</g>
<g id="Email" display="none">
	<path display="inline" fill="#676767" d="M21.5,25.4l8.6,7.1l0,0L21.5,25.4z M30.1,30.8l-7.7-6.4L30.1,30.8L30.1,30.8z M51.1,14v26
		H8.6V14l4.5-3V3.9H24L30,0l5.9,3.9h10.7V11L51.1,14z M46.6,16.8l2.8-2.4l-2.8-1.9V16.8z M26.4,3.9h7.2L30,1.5L26.4,3.9z M14.4,17.8
		l7.9,6.6l7.7,6.4l0,0l15.3-13v-6.1v-1.5V5.2h-7.4h-2.3H24.4H22h-7.6v5v1.5V17.8z M10.3,14.4l2.8,2.3v-4.2L10.3,14.4z M49.9,15.8
		L30.1,32.5l0,0l-8.6-7.1L9.9,15.8v23h40L49.9,15.8L49.9,15.8z M29.8,24c-3.3,0-6.2-2.4-6.2-6.4c0-4.2,2.9-7.8,7.4-7.8
		c3.5,0,5.9,2.5,5.9,5.9c0,3.1-1.7,4.8-3.6,4.8c-0.8,0-1.6-0.6-1.5-1.8h-0.1c-0.7,1.2-1.7,1.8-2.9,1.8c-1.2,0-2.2-1-2.2-2.6
		c0-2.5,2-4.8,4.8-4.8c0.9,0,1.6,0.2,2.2,0.4L33,17.3c-0.3,1.5-0.1,2.3,0.6,2.3c1,0,2.2-1.4,2.2-3.7c0-3-1.8-5.1-4.9-5.1
		c-3.3,0-6.1,2.6-6.1,6.8c0,3.4,2.2,5.5,5.2,5.5c1.2,0,2.2-0.2,3.1-0.7l0.3,0.9C32.3,23.8,31.1,24,29.8,24z M32.3,14.4
		c-0.2-0.1-0.6-0.1-1-0.1c-1.8,0-3.2,1.7-3.2,3.7c0,0.9,0.4,1.5,1.3,1.5c1.2,0,2.3-1.5,2.5-2.8L32.3,14.4z"/>
</g>
<g id="Livery" display="none">
	<g display="inline">
		<path fill="#676767" d="M39.2,26.8H3.5c-0.6,0-1.2-0.5-1.2-1.2V16c0-0.6,0.5-1.2,1.2-1.2h35.7c0.6,0,1.2,0.5,1.2,1.2v9.6
			C40.4,26.3,39.9,26.8,39.2,26.8z M4.7,24.5h33.4v-7.3H4.7V24.5z"/>
		<path fill="#676767" d="M26,34.9c-0.3,0-0.5-0.1-0.7-0.3c-0.5-0.4-0.5-1.1-0.1-1.6l2.9-3.4c0.2-0.3,0.5-0.4,0.9-0.4h14.9V19.1
			c0-0.6,0.5-1.2,1.2-1.2h8.6c0.4,0,0.8,0.2,1,0.6c0.2,0.3,4.6,7.8,2.9,15.6c-0.1,0.5-0.6,0.9-1.1,0.9h-2c-0.6,0-1.2-0.5-1.2-1.2
			s0.5-1.2,1.2-1.2h1.1c0.8-5.4-1.6-10.7-2.5-12.4h-6.7v10.2c0,0.6-0.5,1.2-1.2,1.2H29.5l-2.6,3C26.7,34.8,26.4,34.9,26,34.9z"/>
		<path fill="#676767" d="M56,27.6H45.7c-0.6,0-1.2-0.5-1.2-1.2s0.5-1.2,1.2-1.2H56c0.6,0,1.2,0.5,1.2,1.2S56.6,27.6,56,27.6z"/>
		<path fill="#676767" d="M36.1,40c-2.6,0-4.7-2.1-4.7-4.7c0-2.6,2.1-4.7,4.7-4.7c2.6,0,4.7,2.1,4.7,4.7C40.8,37.9,38.7,40,36.1,40z
			 M36.1,32.8c-1.3,0-2.4,1.1-2.4,2.4c0,1.3,1.1,2.4,2.4,2.4c1.3,0,2.4-1.1,2.4-2.4C38.5,33.9,37.4,32.8,36.1,32.8z"/>
		<path fill="#676767" d="M50.8,40c-2.6,0-4.7-2.1-4.7-4.7c0-2.6,2.1-4.7,4.7-4.7c2.6,0,4.7,2.1,4.7,4.7C55.6,37.9,53.5,40,50.8,40z
			 M50.8,32.8c-1.3,0-2.4,1.1-2.4,2.4c0,1.3,1.1,2.4,2.4,2.4c1.3,0,2.4-1.1,2.4-2.4C53.3,33.9,52.2,32.8,50.8,32.8z"/>
		<path fill="#676767" d="M8.5,40c-2.6,0-4.7-2.1-4.7-4.7c0-2.6,2.1-4.7,4.7-4.7s4.7,2.1,4.7,4.7C13.3,37.9,11.1,40,8.5,40z
			 M8.5,32.8c-1.3,0-2.4,1.1-2.4,2.4c0,1.3,1.1,2.4,2.4,2.4s2.4-1.1,2.4-2.4C11,33.9,9.9,32.8,8.5,32.8z"/>
		<path fill="#676767" d="M18.4,40c-2.6,0-4.7-2.1-4.7-4.7c0-2.6,2.1-4.7,4.7-4.7s4.7,2.1,4.7,4.7C23.1,37.9,21,40,18.4,40z
			 M18.4,32.8c-1.3,0-2.4,1.1-2.4,2.4c0,1.3,1.1,2.4,2.4,2.4s2.4-1.1,2.4-2.4C20.8,33.9,19.7,32.8,18.4,32.8z"/>
	</g>
</g>
<g id="Interactive" display="none">
	<g display="inline">
		<path fill="#676767" d="M18.8,16.3v5.6c0,0.3,0.3,0.6,0.6,0.6c0.3,0,0.6-0.3,0.6-0.6v-5.6c0-0.3-0.3-0.6-0.6-0.6
			C19,15.7,18.8,16,18.8,16.3z"/>
		<path fill="#676767" d="M49.1,10.6c-0.1-0.3-0.4-0.5-0.7-0.4c-11.6,2.4-13.9-1.7-16-5.3C31.2,2.4,29.8,0,26.1,0
			c-2.5,0-4.5,0.8-5.8,2.4c-1.8,2.3-1.9,5.5-1.7,7.2c-4.3,0.4-7.7,4-7.7,8.4v13.5c0,4.7,3.8,8.4,8.4,8.4c4.7,0,8.4-3.8,8.4-8.4V18
			c0-4.5-3.6-8.2-8-8.4c-0.1-1.5-0.2-4.5,1.4-6.5c1.1-1.3,2.7-2,4.9-2c3.1,0,4.1,1.9,5.4,4.2c1.7,3,3.7,6.6,10.8,6.6
			c1.8,0,3.9-0.2,6.4-0.8C49,11.2,49.2,10.9,49.1,10.6z M25.5,18v13.5c0,3.4-2.8,6.2-6.2,6.2c-3.4,0-6.2-2.8-6.2-6.2V18
			c0-3.4,2.8-6.2,6.2-6.2C22.7,11.8,25.5,14.6,25.5,18z"/>
	</g>
</g>
<g id="Direct_Mail" display="none">
	<g display="inline">
		<path fill="#676767" d="M25.5,38.6c-0.3,0-0.5-0.1-0.7-0.3L11,24.6c-0.4-0.4-0.4-1.1,0-1.5L33.8,0.3c0.4-0.4,1.1-0.4,1.5,0
			L49,14.1c0.4,0.4,0.4,1.1,0,1.5L26.2,38.3C26,38.5,25.8,38.6,25.5,38.6z M13.2,23.8l12.3,12.3l21.3-21.3L34.5,2.5L13.2,23.8z"/>
	</g>
	<g display="inline">
		<path fill="#676767" d="M25.3,19c-0.3,0-0.5-0.1-0.7-0.3c-0.4-0.4-0.4-1.1,0-1.5l4.7-4.7c0.4-0.4,1.1-0.4,1.5,0
			c0.4,0.4,0.4,1.1,0,1.5L26,18.7C25.8,18.9,25.5,19,25.3,19z"/>
	</g>
	<g display="inline">
		<path fill="#676767" d="M31.4,25.1c-0.3,0-0.5-0.1-0.7-0.3c-0.4-0.4-0.4-1.1,0-1.5l7.4-7.4c0.4-0.4,1.1-0.4,1.5,0
			c0.4,0.4,0.4,1.1,0,1.5l-7.4,7.4C31.9,25,31.6,25.1,31.4,25.1z"/>
	</g>
	<g display="inline">
		<path fill="#676767" d="M27.4,21.2c-0.3,0-0.5-0.1-0.7-0.3c-0.4-0.4-0.4-1.1,0-1.5l9-9c0.4-0.4,1.1-0.4,1.5,0
			c0.4,0.4,0.4,1.1,0,1.5l-9,9C28,21.1,27.7,21.2,27.4,21.2z"/>
	</g>
	<g display="inline">
		<path fill="#676767" d="M42.9,39.9H18.7c-0.6,0-1-0.5-1-1s0.5-1,1-1h24.1c0.6,0,1,0.5,1,1S43.4,39.9,42.9,39.9z"/>
	</g>
</g>
<g id="Web" display="none">
	<circle display="inline" fill="#676767" cx="53.1" cy="33.6" r="0.6"/>
	<path display="inline" fill="#676767" d="M52.2,39l-1.9-4.1c1.4-6.4-0.6-9.4-1-9.9l-1.7-4.5c-0.2-0.5-0.7-0.9-1.4-0.9V1.8
		c0-1-0.8-1.8-1.8-1.8H20.6c-1,0-1.8,0.8-1.8,1.8v18.4c0,0,0-0.1-0.1-0.1c-0.2-0.4-0.5-0.5-0.6-0.5c-1.4-0.4-2.2,1.5-2.3,1.8
		c-0.9,2.1-1.6,5.3-0.9,7.3c0.6,1.9,0.1,2.9,0.1,3L14.6,32l-0.2-0.1c-0.2-0.1-0.4-0.1-0.6,0.1l-6,6.3c-0.1,0.1-0.2,0.3-0.1,0.5
		C7.9,39,8,39.2,8.2,39.2h10.3c0.2,0,0.3-0.1,0.4-0.2l1.9-2.8c0.1-0.1,0.1-0.2,0.1-0.3c0.4-0.1,0.8-0.3,1.2-0.5
		c0.1,0,0.1-0.1,0.2-0.2h17.6c1,1.2,2,2.1,2.4,2.5l-0.3,1.8c0,0.3,0.1,0.5,0.4,0.6c0,0,0.1,0,0.1,0c0.2,0,0.4-0.2,0.5-0.4l0.4-2.1
		c0-0.2,0-0.3-0.2-0.4c-1.8-1.6-6.5-6.5-6.3-9.3c0-0.6,0.3-1.1,0.8-1.5l0.9,2.4c0.1,0.2,0.3,0.3,0.5,0.3c0.1,0,0.1,0,0.2,0
		c0.3-0.1,0.4-0.4,0.3-0.6l-3.7-10.1c0-0.1,0-0.2,0-0.3c0.1-0.2,0.3-0.4,0.5-0.5c0.4-0.1,0.8,0,0.9,0.2l1,2.6c0,0.1,0,0.2,0.1,0.3
		l2.4,5.9c0,0,0,0,0,0c0,0,0,0.1,0.1,0.1c0,0,0,0,0,0c0,0,0.1,0.1,0.1,0.1c0,0,0,0,0,0c0,0,0.1,0,0.1,0c0,0,0,0,0,0c0,0,0.1,0,0.1,0
		c0,0,0,0,0,0c0,0,0,0,0,0c0,0,0,0,0,0c0,0,0,0,0.1,0c0,0,0,0,0,0h0c0,0,0,0,0,0c0,0,0,0,0,0c0,0,0,0,0,0c0,0,0,0,0,0c0,0,0,0,0,0
		c0,0,0,0,0,0c0,0,0,0,0,0c0,0,0,0,0,0c0,0,0,0,0,0c0,0,0,0,0,0c0,0,0,0,0-0.1c0,0,0,0,0,0c0,0,0,0,0-0.1c0,0,0,0,0,0c0,0,0,0,0-0.1
		c0,0,0,0,0,0c0,0,0,0,0,0l0,0l0,0l0,0l-2.4-6.1c0-0.1,0-0.2,0.1-0.2c0.1-0.2,0.3-0.3,0.5-0.4c0.2-0.1,0.4-0.1,0.6,0
		c0.1,0,0.2,0.1,0.3,0.3l2.4,6c0,0.1,0.1,0.1,0.1,0.2l0,0.1c0.1,0.2,0.3,0.3,0.5,0.3c0.1,0,0.1,0,0.2,0c0.2-0.1,0.4-0.4,0.3-0.6
		l-1.7-4.5c-0.1-0.1,0-0.3,0.1-0.4c0.1-0.2,0.3-0.3,0.5-0.4c0.4-0.1,0.8,0,0.9,0.2l1.7,4.5c0,0.1,0.1,0.1,0.1,0.1l0.4,1.1
		c0.1,0.2,0.4,0.4,0.6,0.3c0.2-0.1,0.4-0.4,0.3-0.6l-1.7-4.5c-0.1-0.3,0.2-0.6,0.6-0.8c0.4-0.1,0.8,0,0.9,0.2l1.7,4.5
		c0,0.1,0.1,0.1,0.1,0.1c0,0,2.3,2.7,0.8,9.2c0,0.1,0,0.2,0,0.3l2,4.3c0.1,0.2,0.3,0.3,0.4,0.3c0.1,0,0.1,0,0.2,0
		C52.2,39.5,52.3,39.2,52.2,39z M18.8,22.5v1.4l-0.2-0.6C18.7,23,18.7,22.7,18.8,22.5z M15.8,28.4c-0.5-1.7,0.1-4.7,0.9-6.7
		c0.2-0.5,0.7-1.3,1.1-1.2c0.1,0.1,0.4,0.6-0.2,2.7c0,0.1,0,0.2,0,0.3l1.2,3v6.9c0,0.8,0.5,1.5,1.3,1.7c0,0-0.1,0-0.1,0l-4.4-2.6
		l0.2-0.3c0,0,0,0,0,0C15.8,32.1,16.6,30.8,15.8,28.4z M18.2,38.2H9.3l4.9-5.2l5.4,3.1L18.2,38.2z M41.8,20l-0.2-0.6
		c-0.1-0.4-0.5-0.7-0.9-0.8c-0.4-0.1-0.8-0.1-1.3,0c-0.3,0.1-0.5,0.2-0.7,0.4l-0.7-1.7c-0.3-0.8-1.3-1.1-2.2-0.8
		c-0.5,0.2-0.9,0.5-1.1,1c-0.2,0.3-0.2,0.7-0.1,1l2.5,6.8c0,0,0,0,0,0c-0.9,0.6-1.3,1.3-1.4,2.3c-0.1,1,0.3,2,0.8,3.1h-14V4.4h19.9
		v15.1C42.2,19.6,42,19.8,41.8,20z M44.8,20.2c-0.2-0.5-0.7-0.8-1.3-0.9V3.9c0-0.3-0.2-0.5-0.5-0.5H22.1c-0.3,0-0.5,0.2-0.5,0.5
		v27.3c0,0.3,0.2,0.5,0.5,0.5h15.1c0.5,0.9,1.1,1.7,1.8,2.5H20.6c-0.4,0-0.8-0.4-0.8-0.8v-7v0V1.8c0-0.5,0.4-0.8,0.8-0.8h23.9
		c0.4,0,0.8,0.4,0.8,0.8v18C45.1,19.9,44.9,20,44.8,20.2z"/>
	<path display="inline" fill="#676767" d="M53.5,20.2L47,26.1c-0.2,0.2-0.2,0.5,0,0.7c0.1,0.1,0.2,0.2,0.4,0.2c0.1,0,0.2,0,0.3-0.1
		l6.4-5.9c0.2-0.2,0.2-0.5,0-0.7C54,20,53.7,20,53.5,20.2z"/>
	<path display="inline" fill="#676767" d="M49.4,21.5c0.1,0,0.2,0,0.3-0.1l2.4-2.2c0.2-0.2,0.2-0.5,0-0.7c-0.2-0.2-0.5-0.2-0.7,0
		L49,20.6c-0.2,0.2-0.2,0.5,0,0.7C49.1,21.4,49.2,21.5,49.4,21.5z"/>
</g>
<g id="Exhibitions" display="none">
	<g display="inline">
		<path fill="#676767" d="M28.3,21.6l-2-3.3l-5,8.3h4.2h5.8h7.5L32.1,15L28.3,21.6z M24.2,25l2.1-3.4l1.1,1.8L26.4,25H24.2z
			 M28.3,25l3.8-6.6l3.8,6.6H28.3z"/>
		<path fill="#676767" d="M42.5,6.7h-1.7V5h-1.7V0h-1.7v5h-1.7v1.7H24.2V5h-1.7V0h-1.7v5h-1.7v1.7h-1.7h-1.7v1.7v29.9v1.7h1.7h25
			h1.7v-1.7V8.3V6.7H42.5z M37.5,6.7h1.7v1.7h-1.7V6.7z M20.8,6.7h1.7v1.7h-1.7V6.7z M42.5,38.3h-25V8.3h1.7V10h5V8.3h11.6V10h5V8.3
			h1.7V38.3z"/>
		<path fill="#676767" d="M33.3,33.3h-6.7c-0.5,0-0.8,0.4-0.8,0.8c0,0.5,0.4,0.8,0.8,0.8h6.7c0.5,0,0.8-0.4,0.8-0.8
			C34.2,33.6,33.8,33.3,33.3,33.3z"/>
		<path fill="#676767" d="M36.7,29.9H23.3c-0.5,0-0.8,0.4-0.8,0.8c0,0.5,0.4,0.8,0.8,0.8h13.3c0.5,0,0.8-0.4,0.8-0.8
			C37.5,30.3,37.1,29.9,36.7,29.9z"/>
	</g>
</g>
<g id="Staitionary" display="none">
	<g display="inline">
		<g>
			<path fill="#676767" d="M24.8,0v20h1.3V6.7h24v6.7h1.3V0H24.8z M26.1,5.3v-4h24v4H26.1z"/>
			<polygon fill="#676767" points="26.1,37.3 24.8,37.3 24.8,40 46.8,40 46.8,38.7 26.1,38.7 			"/>
			<path fill="#676767" d="M23.4,0H8.8v8h14.7V0z M22.1,6.7h-12V1.3h12V6.7z"/>
			<path fill="#676767" d="M50.8,14.7h-2.7c-0.4,0-0.7,0.3-0.7,0.7v21.3c0,0.1,0,0.2,0.1,0.3l1.3,2.7c0.1,0.2,0.3,0.4,0.6,0.4
				c0.3,0,0.5-0.1,0.6-0.4l1.3-2.7c0-0.1,0.1-0.2,0.1-0.3V15.3C51.4,15,51.1,14.7,50.8,14.7z M50.1,16v2.7h-1.3V16H50.1z M49.4,37.8
				l-0.7-1.3V20h1.3v16.5L49.4,37.8z"/>
			<polygon fill="#676767" points="10.1,10.7 22.1,10.7 22.1,20 23.4,20 23.4,9.3 8.8,9.3 8.8,24 11.4,24 11.4,22.7 10.1,22.7 			
				"/>
			<path fill="#676767" d="M40.8,21.3h-28V36h28V21.3z M37.3,22.7l-10.5,5.3l-10.5-5.3H37.3z M14.1,34.7V23.1l12.7,6.3l12.7-6.3
				v11.6H14.1z"/>
			<rect x="15.4" y="3.3" fill="#676767" width="1.3" height="1.3"/>
			<rect x="12.8" y="3.3" fill="#676767" width="1.3" height="1.3"/>
			<rect x="18.1" y="3.3" fill="#676767" width="1.3" height="1.3"/>
			<rect x="37.4" y="9.3" fill="#676767" width="1.3" height="1.3"/>
			<rect x="34.8" y="9.3" fill="#676767" width="1.3" height="1.3"/>
			<rect x="40.1" y="9.3" fill="#676767" width="1.3" height="1.3"/>
			<rect x="27.4" y="2.7" fill="#676767" width="21.3" height="1.3"/>
			<rect x="11.4" y="12" fill="#676767" width="9.3" height="1.3"/>
		</g>
	</g>
</g>
<g id="Layer_20" display="none">
	<rect display="inline" fill="#009245" width="60" height="40"/>
</g>
<g id="AB_Mauri_x5F_logo" display="none">
	<g display="inline">
		<g>
			<path fill="#FFFFFF" d="M14,19.4c0,0,0.6,0,1.1-0.4c0.5-0.4,0.5-1.6-0.3-2.1c-0.8-0.5-2.2-0.6-3.2-0.6h-3v0.4H9
				c0.2,0,0.7,0.3,0.7,0.7v4.9c0,0.8-0.5,0.8-1.1,0.9c-0.7,0-1-0.2-1.2-0.6C7.3,22.1,5,16.3,5,16.3H3.3l0.1,0.3c0,0-1.7,4.9-2,5.5
				C1.1,22.8,1,22.9,0.7,23c-0.2,0.1-0.6,0.1-0.6,0.1v0.5h3v-0.4c0,0-0.3,0-0.6-0.1c-0.3,0-0.6-0.1-0.6-0.5c0.1-0.3,0.6-1.7,0.6-1.7
				h2.5c0,0,0.3,0.9,0.6,1.5C5.9,23,5.6,23,5.3,23.1c-0.3,0.1-0.6,0-0.6,0v0.5h8c0.6,0,1.6,0,2.5-0.8c1.1-0.9,0.5-2.3,0.1-2.7
				C14.9,19.7,14,19.4,14,19.4z M2.8,20.3l1-2.6l1,2.6H2.8z M11.3,16.8c0,0,0.8-0.2,1.3,0c0.5,0.2,1,0.5,1,1.2
				c0,0.6-0.1,1.1-0.8,1.3c-0.7,0.2-1.5,0-1.5,0V16.8z M13.8,22.3c-0.3,0.6-1,0.8-1.7,0.7c-0.6-0.1-0.8-0.4-0.8-0.9v-2.4
				c0,0,1-0.3,1.9,0.2C14.2,20.5,14.1,21.9,13.8,22.3z M18.1,28.2h1.4V11.8h-1.4V28.2z M39.1,22.4c-0.3-0.8-2.4-6.2-2.4-6.2H35
				l0.1,0.3c0,0-1.8,5.3-2.1,5.8c-0.2,0.5-0.4,0.7-1.2,0.7c-0.8,0-0.9-0.5-0.9-1c0-0.5-0.3-4.6-0.3-4.8c0-0.3,0.1-0.5,0.5-0.5l0.3,0
				v-0.4H29l-2.2,5l-2.2-5l-2.4,0v0.4c0,0,0.4,0,0.5,0.1c0.1,0.1,0.3,0.4,0.3,0.8c0,0.6-0.3,4.5-0.3,4.9c-0.1,0.4-0.4,0.6-0.6,0.6
				c-0.2,0-0.3,0-0.3,0v0.4h2.5v-0.4c0,0-0.6-0.1-0.8-0.2c-0.1-0.1-0.2-0.4-0.2-0.9c0-0.5,0.3-4.2,0.3-4.2l2.6,5.7h0.3l2.6-5.8
				c0,0,0.3,4.4,0.3,4.8c0,0.3-0.2,0.6-0.5,0.6c-0.3,0-0.6,0-0.6,0v0.5h6.6v-0.4c0,0-0.7,0-0.9-0.1c-0.2-0.1-0.3-0.3-0.1-0.7
				c0.1-0.4,0.5-1.4,0.5-1.4h2.5c0,0,0.6,1.2,0.6,1.5c0.1,0.3,0.1,0.6-0.5,0.6l-0.5,0v0.4h3.6v-0.5C40.1,23.1,39.4,23.2,39.1,22.4z
				 M34.5,20.3l1-2.6l1,2.6H34.5z M59.5,16.7c0.2-0.1,0.5,0,0.5,0v-0.4h-3.6v0.4c0,0,0.2,0,0.5,0.1c0.3,0.1,0.5,0.4,0.5,0.9v4.7
				c0,0.2,0.2,0.8-1,0.8c-1.2,0-1.8-1-2.2-1.7c-0.5-0.6-1.1-1.2-1.1-1.2s0.6-0.1,1.2-0.7c0.6-0.6,0.5-1.8,0.1-2.3
				c-0.4-0.5-1.3-1-3.2-1H45v0.5c0,0,0.1-0.1,0.5,0c0.5,0.2,0.6,0.5,0.6,1c0,0.4,0,2.9,0,3.5c0,0.6-0.5,1.8-2.1,1.8
				c-1.6,0-2.2-1-2.2-1.6s0-2.7,0-3.7c0-1.1,1-1,1-1v-0.4h-3.6v0.4c0,0,0.3,0,0.5,0c0.2,0.1,0.5,0.3,0.5,0.7c0,0.4,0,3.3,0,3.7
				c0,0.4,0.2,1.1,0.6,1.6c0.4,0.5,1.2,0.9,2.3,1c1.1,0.1,1.8-0.1,2.6-0.5c0.8-0.5,1.1-1.7,1.1-2.3v-3.3c0-0.5,0.4-0.9,1-0.9
				c0.6,0,1.1,0.4,1.1,0.9v4.8c0,0.4-0.3,0.7-0.5,0.8c-0.2,0.1-0.7,0-0.7,0v0.4h4v-0.4c0,0-0.1,0-0.5,0c-0.3,0-0.8-0.4-0.8-0.7v-1.9
				h0.9c0,0,0.5,0.5,1.3,1.6c0.7,1.1,1.1,1.3,1.9,1.4c0.8,0.1,5.4,0,5.4,0v-0.4c0,0-0.2,0-0.5,0c-0.3,0-0.6-0.3-0.6-0.7v-4.7
				C58.9,17.2,59.3,16.8,59.5,16.7z M51.9,20c-0.5,0.1-1.5,0.1-1.5,0.1v-3.3c0,0,0.8-0.1,1.2,0c0.4,0.1,1.4,0.4,1.4,1.6
				C53.1,19.5,52.4,19.8,51.9,20z"/>
		</g>
	</g>
</g>
<g id="Hessle_Fed_x5F_logo" display="none">
	<g display="inline">
		<g>
			<path fill="#FFFFFF" d="M26.9,23.6c0,0.3,0,0.6,0,0.7c0,0.1,0,0.2,0.1,0.2c0,0,0.1,0,0.2,0c0,0,0,0,0,0c0,0,0,0-0.1,0
				c-0.2,0-0.4,0-0.4,0c0,0-0.2,0-0.3,0c0,0-0.1,0-0.1,0c0,0,0,0,0,0c0,0,0.1,0,0.1,0c0.1,0,0.1-0.1,0.1-0.2c0-0.1,0-0.4,0-0.7v-1.4
				l-0.5,0c-0.2,0-0.3,0-0.3,0.1c0,0.1,0,0.1-0.1,0.1c0,0,0,0,0,0c0,0,0,0,0,0c0,0,0.1-0.3,0.1-0.3c0,0,0-0.1,0-0.1c0,0,0.1,0,0.1,0
				c0.1,0,0.2,0,0.3,0h1.3c0.1,0,0.2,0,0.2,0c0.1,0,0.1,0,0.1,0c0,0,0,0,0,0c0,0.1,0,0.3,0,0.4c0,0,0,0,0,0c0,0,0,0,0-0.1l0,0
				c0-0.1-0.1-0.2-0.4-0.2l-0.4,0V23.6z"/>
			<path fill="#FFFFFF" d="M30.6,23.6c0,0.3,0,0.6,0,0.7c0,0.1,0,0.2,0.1,0.2c0,0,0.1,0,0.2,0c0,0,0,0,0,0c0,0,0,0-0.1,0
				c-0.2,0-0.4,0-0.4,0c0,0-0.2,0-0.3,0c0,0-0.1,0-0.1,0c0,0,0,0,0,0c0,0,0.1,0,0.1,0c0.1,0,0.1-0.1,0.1-0.2c0-0.1,0-0.4,0-0.7v-0.4
				c0,0,0,0,0,0h-1.4c0,0,0,0,0,0v0.4c0,0.3,0,0.6,0,0.7c0,0.1,0,0.2,0.1,0.2c0,0,0.1,0,0.2,0c0,0,0,0,0,0c0,0,0,0-0.1,0
				c-0.2,0-0.4,0-0.4,0c0,0-0.2,0-0.3,0c0,0-0.1,0-0.1,0c0,0,0,0,0,0c0,0,0.1,0,0.1,0c0.1,0,0.1-0.1,0.1-0.2c0-0.1,0-0.4,0-0.7V23
				c0-0.5,0-0.6,0-0.7c0-0.1,0-0.2-0.1-0.2c0,0-0.1,0-0.1,0c0,0,0,0,0,0c0,0,0,0,0.1,0c0.2,0,0.4,0,0.4,0c0,0,0.2,0,0.3,0
				c0,0,0.1,0,0.1,0c0,0,0,0,0,0c0,0,0,0-0.1,0c-0.1,0-0.1,0.1-0.1,0.2c0,0.1,0,0.2,0,0.7v0.1c0,0,0,0,0,0h1.4c0,0,0,0,0,0V23
				c0-0.5,0-0.6,0-0.7c0-0.1,0-0.2-0.1-0.2c0,0-0.1,0-0.1,0c0,0,0,0,0,0c0,0,0,0,0.1,0c0.2,0,0.4,0,0.4,0c0,0,0.2,0,0.3,0
				c0,0,0.1,0,0.1,0c0,0,0,0,0,0c0,0,0,0-0.1,0c-0.1,0-0.1,0.1-0.1,0.2c0,0.1,0,0.2,0,0.7V23.6z"/>
			<path fill="#FFFFFF" d="M31.7,23c0-0.5,0-0.6,0-0.7c0-0.1,0-0.2-0.1-0.2c0,0-0.1,0-0.1,0c0,0,0,0,0,0c0,0,0,0,0.1,0
				c0.1,0,0.2,0,0.2,0l0.1,0c0,0,0.7,0,0.8,0c0.1,0,0.1,0,0.1,0c0,0,0,0,0,0c0,0,0,0,0,0c0,0,0,0.1,0,0.2c0,0,0,0.2,0,0.2
				c0,0,0,0,0,0c0,0,0,0,0,0c0,0,0-0.1,0-0.1c0-0.1-0.1-0.1-0.2-0.1c-0.1,0-0.4,0-0.5,0c0,0,0,0,0,0v0.9c0,0,0,0,0,0
				c0,0,0.5,0,0.5,0c0.1,0,0.1,0,0.2,0c0,0,0,0,0.1,0c0,0,0,0,0,0c0,0,0,0.1,0,0.2c0,0.1,0,0.2,0,0.2c0,0,0,0.1,0,0.1c0,0,0,0,0,0
				c0,0,0-0.1,0-0.1c0,0,0-0.1-0.2-0.1c-0.1,0-0.4,0-0.5,0c0,0,0,0,0,0v0.3c0,0.1,0,0.5,0,0.6c0,0.2,0.1,0.3,0.4,0.3
				c0.1,0,0.2,0,0.3,0c0.1,0,0.1-0.1,0.2-0.2c0,0,0-0.1,0-0.1c0,0,0,0,0,0.1c0,0,0,0.3,0,0.3c0,0.1-0.1,0.1-0.2,0.1
				c-0.3,0-0.4,0-0.6,0c-0.1,0-0.2,0-0.3,0c0,0-0.1,0-0.1,0c-0.1,0-0.1,0-0.2,0c0,0-0.1,0-0.1,0c0,0,0,0,0,0c0,0,0.1,0,0.1,0
				c0.1,0,0.1-0.1,0.1-0.2c0-0.1,0-0.4,0-0.7V23z"/>
			<path fill="#FFFFFF" d="M29.7,28.4c0,0.5,0,0.9,0,1.1c0,0.2,0,0.3,0.2,0.3c0.1,0,0.2,0,0.2,0c0,0,0,0,0,0c0,0,0,0-0.1,0
				c-0.3,0-0.6,0-0.6,0s-0.4,0-0.5,0c-0.1,0-0.1,0-0.1,0c0,0,0,0,0,0c0,0,0.1,0,0.2,0c0.1,0,0.1-0.1,0.2-0.3c0-0.2,0-0.6,0-1.1v-0.6
				c0,0,0,0,0,0H27c0,0,0,0,0,0v0.6c0,0.5,0,0.9,0,1.1c0,0.2,0,0.3,0.2,0.3c0.1,0,0.2,0,0.2,0c0,0,0,0,0,0c0,0,0,0-0.1,0
				c-0.3,0-0.6,0-0.6,0s-0.4,0-0.5,0c-0.1,0-0.1,0-0.1,0c0,0,0,0,0,0c0,0,0.1,0,0.2,0c0.1,0,0.1-0.1,0.2-0.3c0-0.2,0-0.6,0-1.1v-0.9
				c0-0.8,0-1,0-1.1c0-0.2-0.1-0.3-0.2-0.3c0,0-0.1,0-0.2,0c0,0,0,0,0,0c0,0,0,0,0.1,0c0.2,0,0.6,0,0.6,0s0.4,0,0.5,0
				c0.1,0,0.1,0,0.1,0c0,0,0,0,0,0c0,0-0.1,0-0.1,0c-0.1,0-0.2,0.1-0.2,0.3c0,0.2,0,0.3,0,1.1v0.1c0,0,0,0,0,0h2.2c0,0,0,0,0,0v-0.1
				c0-0.8,0-1,0-1.1c0-0.2-0.1-0.3-0.2-0.3c0,0-0.1,0-0.2,0c0,0,0,0,0,0c0,0,0,0,0.1,0c0.2,0,0.6,0,0.6,0s0.4,0,0.5,0
				c0.1,0,0.1,0,0.1,0c0,0,0,0,0,0c0,0-0.1,0-0.1,0c-0.1,0-0.2,0.1-0.2,0.3c0,0.2,0,0.3,0,1.1V28.4z"/>
			<path fill="#FFFFFF" d="M31.5,27.5c0-0.8,0-1,0-1.1c0-0.2-0.1-0.3-0.2-0.3c0,0-0.1,0-0.2,0c0,0,0,0,0,0c0,0,0,0,0.1,0
				c0.1,0,0.3,0,0.4,0l0.2,0c0,0,1.1,0,1.2,0c0.1,0,0.2,0,0.2,0c0,0,0,0,0.1,0c0,0,0,0,0,0c0,0,0,0.1,0,0.2c0,0.1,0,0.3,0,0.3
				c0,0,0,0.1,0,0.1c0,0,0,0,0-0.1c0,0,0-0.1,0-0.2c0-0.1-0.1-0.1-0.4-0.2c-0.1,0-0.7,0-0.7,0c0,0,0,0,0,0.1v1.4c0,0,0,0.1,0,0.1
				c0.1,0,0.7,0,0.8,0c0.1,0,0.2,0,0.2-0.1c0,0,0.1-0.1,0.1-0.1c0,0,0,0,0,0s0,0.1,0,0.3c0,0.1,0,0.3,0,0.3c0,0,0,0.1,0,0.1
				c0,0,0,0,0,0c0-0.1,0-0.1,0-0.2c0-0.1-0.1-0.2-0.3-0.2c-0.1,0-0.7,0-0.8,0c0,0,0,0,0,0v0.5c0,0.2,0,0.8,0,0.9
				c0,0.4,0.1,0.4,0.6,0.4c0.1,0,0.4,0,0.5-0.1c0.1-0.1,0.2-0.2,0.2-0.4c0-0.1,0-0.1,0-0.1c0,0,0,0,0,0.1c0,0,0,0.4-0.1,0.5
				c0,0.1-0.1,0.1-0.3,0.1c-0.4,0-0.7,0-0.9,0c-0.2,0-0.3,0-0.4,0c0,0-0.1,0-0.2,0c-0.1,0-0.2,0-0.3,0c-0.1,0-0.1,0-0.1,0
				c0,0,0,0,0,0c0,0,0.1,0,0.2,0c0.1,0,0.1-0.1,0.2-0.3c0-0.2,0-0.6,0-1.1V27.5z"/>
			<path fill="#FFFFFF" d="M34.2,29.9c-0.1,0-0.1-0.1-0.1-0.2c0-0.3,0-0.5,0-0.6c0-0.1,0-0.1,0-0.1c0,0,0,0,0,0.1c0,0,0,0.1,0,0.2
				c0.1,0.4,0.4,0.5,0.8,0.5c0.5,0,0.8-0.4,0.8-0.7c0-0.4-0.2-0.6-0.6-0.9L34.9,28c-0.6-0.5-0.7-0.8-0.7-1.1c0-0.6,0.4-0.9,1.1-0.9
				c0.2,0,0.4,0,0.5,0.1c0.1,0,0.1,0,0.2,0s0.1,0,0.1,0s0,0.2,0,0.6c0,0.1,0,0.1,0,0.1c0,0,0,0,0-0.1c0-0.1,0-0.2-0.1-0.3
				c0-0.1-0.2-0.3-0.7-0.3c-0.4,0-0.6,0.2-0.6,0.6c0,0.3,0.1,0.5,0.6,0.9l0.1,0.1c0.6,0.5,0.8,0.8,0.8,1.2c0,0.2-0.1,0.6-0.4,0.9
				C35.5,30,35.2,30,34.9,30C34.7,30,34.4,30,34.2,29.9z"/>
			<path fill="#FFFFFF" d="M37.2,29.9c-0.1,0-0.1-0.1-0.1-0.2c0-0.3,0-0.5,0-0.6c0-0.1,0-0.1,0-0.1c0,0,0,0,0,0.1c0,0,0,0.1,0,0.2
				c0.1,0.4,0.4,0.5,0.8,0.5c0.5,0,0.8-0.4,0.8-0.7c0-0.4-0.2-0.6-0.6-0.9L37.9,28c-0.6-0.5-0.7-0.8-0.7-1.1c0-0.6,0.4-0.9,1.1-0.9
				c0.2,0,0.4,0,0.5,0.1c0.1,0,0.1,0,0.2,0s0.1,0,0.1,0s0,0.2,0,0.6c0,0.1,0,0.1,0,0.1c0,0,0,0,0-0.1c0-0.1,0-0.2-0.1-0.3
				c0-0.1-0.2-0.3-0.7-0.3c-0.4,0-0.6,0.2-0.6,0.6c0,0.3,0.1,0.5,0.6,0.9l0.1,0.1c0.6,0.5,0.8,0.8,0.8,1.2c0,0.2-0.1,0.6-0.4,0.9
				C38.5,30,38.2,30,37.9,30C37.7,30,37.4,30,37.2,29.9z"/>
			<path fill="#FFFFFF" d="M40.9,28.4c0,0.8,0,1.1,0.1,1.2c0.1,0.1,0.2,0.1,0.6,0.1c0.3,0,0.5,0,0.6-0.2c0.1-0.1,0.1-0.2,0.1-0.3
				c0,0,0-0.1,0-0.1c0,0,0,0,0,0.1c0,0.1,0,0.4-0.1,0.5c0,0.1-0.1,0.1-0.3,0.1c-0.4,0-0.7,0-0.9,0c-0.2,0-0.4,0-0.5,0
				c0,0-0.1,0-0.2,0c-0.1,0-0.2,0-0.3,0c-0.1,0-0.1,0-0.1,0c0,0,0,0,0,0c0,0,0.1,0,0.2,0c0.1,0,0.1-0.1,0.2-0.3c0-0.2,0-0.6,0-1.1
				v-0.9c0-0.8,0-1,0-1.1c0-0.2-0.1-0.3-0.2-0.3c0,0-0.1,0-0.2,0c0,0,0,0,0,0c0,0,0,0,0.1,0c0.2,0,0.6,0,0.6,0s0.4,0,0.6,0
				c0.1,0,0.1,0,0.1,0c0,0,0,0,0,0c0,0-0.1,0-0.2,0c-0.2,0-0.2,0.1-0.2,0.3c0,0.2,0,0.3,0,1.1V28.4z"/>
			<path fill="#FFFFFF" d="M43.4,27.5c0-0.8,0-1,0-1.1c0-0.2-0.1-0.3-0.2-0.3c0,0-0.1,0-0.2,0c0,0,0,0,0,0c0,0,0,0,0.1,0
				c0.1,0,0.3,0,0.4,0l0.2,0c0,0,1.1,0,1.2,0c0.1,0,0.2,0,0.2,0c0,0,0,0,0.1,0c0,0,0,0,0,0c0,0,0,0.1,0,0.2c0,0.1,0,0.3,0,0.3
				c0,0,0,0.1,0,0.1c0,0,0,0,0-0.1c0,0,0-0.1,0-0.2c0-0.1-0.1-0.1-0.4-0.2c-0.1,0-0.7,0-0.7,0c0,0,0,0,0,0.1v1.4c0,0,0,0.1,0,0.1
				c0.1,0,0.7,0,0.8,0c0.1,0,0.2,0,0.2-0.1c0,0,0.1-0.1,0.1-0.1c0,0,0,0,0,0s0,0.1,0,0.3c0,0.1,0,0.3,0,0.3c0,0,0,0.1,0,0.1
				c0,0,0,0,0,0c0-0.1,0-0.1,0-0.2c0-0.1-0.1-0.2-0.3-0.2c-0.1,0-0.7,0-0.8,0c0,0,0,0,0,0v0.5c0,0.2,0,0.8,0,0.9
				c0,0.4,0.1,0.4,0.6,0.4c0.1,0,0.4,0,0.5-0.1c0.1-0.1,0.2-0.2,0.2-0.4c0-0.1,0-0.1,0-0.1c0,0,0,0,0,0.1c0,0,0,0.4-0.1,0.5
				c0,0.1-0.1,0.1-0.3,0.1c-0.4,0-0.7,0-0.9,0c-0.2,0-0.3,0-0.4,0c0,0-0.1,0-0.2,0c-0.1,0-0.2,0-0.3,0c-0.1,0-0.1,0-0.1,0
				c0,0,0,0,0,0c0,0,0.1,0,0.2,0c0.1,0,0.1-0.1,0.2-0.3c0-0.2,0-0.6,0-1.1V27.5z"/>
		</g>
	</g>
	<g display="inline">
		<path fill="#FFFFFF" d="M26.5,32.9c0-0.8,0-0.9,0-1.1c0-0.2,0-0.2-0.2-0.3c0,0-0.1,0-0.2,0c0,0,0,0,0,0c0,0,0,0,0.1,0
			c0.1,0,0.2,0,0.4,0l0.2,0c0.1,0,1.1,0,1.2,0c0.1,0,0.2,0,0.2,0c0,0,0,0,0.1,0c0,0,0,0,0,0c0,0,0,0.1,0,0.2c0,0,0,0.3,0,0.3
			c0,0,0,0.1,0,0.1c0,0,0,0,0-0.1c0,0,0-0.1,0-0.2c0-0.1-0.1-0.2-0.3-0.2l-0.8,0c0,0,0,0,0,0.1v1.4c0,0,0,0,0,0l0.6,0
			c0.1,0,0.2,0,0.2,0c0.1,0,0.2,0,0.2-0.1c0,0,0,0,0.1,0c0,0,0,0,0,0c0,0,0,0.1,0,0.3c0,0.1,0,0.3,0,0.3c0,0,0,0.1,0,0.1
			c0,0,0,0,0,0c0,0,0-0.1,0-0.2c0-0.1-0.1-0.2-0.3-0.2c-0.1,0-0.7,0-0.8,0c0,0,0,0,0,0v0.4c0,0.5,0,0.9,0,1.1c0,0.1,0,0.3,0.2,0.3
			c0.1,0,0.2,0,0.2,0c0,0,0,0,0,0c0,0,0,0-0.1,0c-0.3,0-0.6,0-0.6,0c0,0-0.3,0-0.5,0c-0.1,0-0.1,0-0.1,0c0,0,0,0,0,0
			c0,0,0.1,0,0.1,0c0.1,0,0.1-0.1,0.1-0.3c0-0.2,0-0.6,0-1.1V32.9z"/>
		<path fill="#FFFFFF" d="M29.3,32.9c0-0.8,0-0.9,0-1.1c0-0.2,0-0.2-0.2-0.3c0,0-0.1,0-0.2,0c0,0,0,0,0,0c0,0,0,0,0.1,0
			c0.1,0,0.2,0,0.4,0l0.2,0c0,0,1,0,1.1,0c0.1,0,0.2,0,0.2,0c0,0,0,0,0.1,0c0,0,0,0,0,0c0,0,0,0.1,0,0.2c0,0,0,0.3,0,0.3
			c0,0,0,0.1,0,0.1c0,0,0,0,0-0.1c0,0,0-0.1,0-0.2c0-0.1-0.1-0.1-0.4-0.2c-0.1,0-0.6,0-0.7,0c0,0,0,0,0,0v1.4c0,0,0,0,0,0
			c0.1,0,0.7,0,0.8,0c0.1,0,0.2,0,0.2-0.1c0,0,0.1-0.1,0.1-0.1c0,0,0,0,0,0s0,0.1,0,0.3c0,0.1,0,0.3,0,0.3c0,0,0,0.1,0,0.1
			c0,0,0,0,0,0c0,0,0-0.1,0-0.2c0-0.1-0.1-0.2-0.3-0.2c-0.1,0-0.6,0-0.7,0c0,0,0,0,0,0v0.4c0,0.2,0,0.7,0,0.9c0,0.3,0.1,0.4,0.6,0.4
			c0.1,0,0.3,0,0.5-0.1c0.1-0.1,0.2-0.2,0.2-0.4c0-0.1,0-0.1,0-0.1c0,0,0,0,0,0.1c0,0,0,0.4-0.1,0.5c0,0.1-0.1,0.1-0.3,0.1
			c-0.4,0-0.6,0-0.8,0c-0.2,0-0.3,0-0.4,0c0,0-0.1,0-0.2,0c-0.1,0-0.2,0-0.3,0c-0.1,0-0.1,0-0.1,0c0,0,0,0,0,0c0,0,0.1,0,0.1,0
			c0.1,0,0.1-0.1,0.1-0.3c0-0.2,0-0.6,0-1.1V32.9z"/>
		<path fill="#FFFFFF" d="M32.1,32.9c0-0.8,0-0.9,0-1.1c0-0.2,0-0.2-0.2-0.3c0,0-0.1,0-0.2,0c0,0,0,0,0,0c0,0,0,0,0.1,0
			c0.2,0,0.5,0,0.6,0c0.1,0,0.4,0,0.7,0c0.5,0,1.4,0,2,0.6c0.2,0.3,0.5,0.7,0.5,1.3c0,0.6-0.3,1.1-0.5,1.4c-0.2,0.2-0.7,0.6-1.5,0.6
			c-0.2,0-0.5,0-0.7,0c-0.2,0-0.4,0-0.4,0c0,0-0.1,0-0.2,0c-0.1,0-0.2,0-0.3,0c-0.1,0-0.1,0-0.1,0c0,0,0,0,0,0c0,0,0.1,0,0.1,0
			c0.1,0,0.1-0.1,0.1-0.3c0-0.2,0-0.6,0-1.1V32.9z M32.5,33.5c0,0.5,0,1,0,1.1c0,0.1,0,0.3,0.1,0.4c0.1,0.1,0.3,0.2,0.8,0.2
			c0.5,0,0.9-0.2,1.2-0.5c0.3-0.3,0.4-0.7,0.4-1.2c0-0.6-0.3-1-0.5-1.3c-0.5-0.5-1-0.6-1.6-0.6c-0.1,0-0.3,0-0.3,0
			c0,0-0.1,0-0.1,0.1c0,0.2,0,0.7,0,1.1V33.5z"/>
		<path fill="#FFFFFF" d="M36.4,32.9c0-0.8,0-0.9,0-1.1c0-0.2,0-0.2-0.2-0.3c0,0-0.1,0-0.2,0c0,0,0,0,0,0c0,0,0,0,0.1,0
			c0.1,0,0.2,0,0.4,0l0.2,0c0,0,1,0,1.1,0c0.1,0,0.2,0,0.2,0c0,0,0,0,0.1,0c0,0,0,0,0,0c0,0,0,0.1,0,0.2c0,0,0,0.3,0,0.3
			c0,0,0,0.1,0,0.1c0,0,0,0,0-0.1c0,0,0-0.1,0-0.2c0-0.1-0.1-0.1-0.4-0.2c-0.1,0-0.6,0-0.7,0c0,0,0,0,0,0v1.4c0,0,0,0,0,0
			c0.1,0,0.7,0,0.8,0c0.1,0,0.2,0,0.2-0.1c0,0,0.1-0.1,0.1-0.1c0,0,0,0,0,0s0,0.1,0,0.3c0,0.1,0,0.3,0,0.3c0,0,0,0.1,0,0.1
			c0,0,0,0,0,0c0,0,0-0.1,0-0.2c0-0.1-0.1-0.2-0.3-0.2c-0.1,0-0.6,0-0.7,0c0,0,0,0,0,0v0.4c0,0.2,0,0.7,0,0.9c0,0.3,0.1,0.4,0.6,0.4
			c0.1,0,0.3,0,0.5-0.1c0.1-0.1,0.2-0.2,0.2-0.4c0-0.1,0-0.1,0-0.1c0,0,0,0,0,0.1c0,0,0,0.4-0.1,0.5c0,0.1-0.1,0.1-0.3,0.1
			c-0.4,0-0.6,0-0.8,0c-0.2,0-0.3,0-0.4,0c0,0-0.1,0-0.2,0c-0.1,0-0.2,0-0.3,0c-0.1,0-0.1,0-0.1,0c0,0,0,0,0,0c0,0,0.1,0,0.1,0
			c0.1,0,0.1-0.1,0.1-0.3c0-0.2,0-0.6,0-1.1V32.9z"/>
		<path fill="#FFFFFF" d="M39.2,32.9c0-0.8,0-0.9,0-1.1c0-0.2,0-0.2-0.2-0.3c0,0-0.1,0-0.2,0c0,0,0,0,0,0c0,0,0,0,0.1,0
			c0.2,0,0.5,0,0.6,0c0.1,0,0.4,0,0.6,0c0.3,0,0.6,0,0.9,0.2c0.1,0.1,0.3,0.3,0.3,0.7c0,0.4-0.2,0.7-0.6,1.2c0.4,0.5,0.7,1,1,1.3
			c0.3,0.3,0.5,0.3,0.6,0.4c0.1,0,0.2,0,0.2,0c0,0,0,0,0,0c0,0,0,0-0.1,0h-0.4c-0.3,0-0.4,0-0.5-0.1c-0.2-0.1-0.4-0.4-0.7-0.7
			c-0.2-0.3-0.4-0.6-0.5-0.7c0,0,0,0-0.1,0l-0.6,0c0,0,0,0,0,0v0.1c0,0.5,0,0.9,0,1.1c0,0.1,0,0.3,0.2,0.3c0.1,0,0.2,0,0.2,0
			c0,0,0,0,0,0c0,0,0,0-0.1,0c-0.3,0-0.6,0-0.6,0c0,0-0.3,0-0.5,0c-0.1,0-0.1,0-0.1,0c0,0,0,0,0,0c0,0,0.1,0,0.1,0
			c0.1,0,0.1-0.1,0.1-0.3c0-0.2,0-0.6,0-1.1V32.9z M39.6,33.4C39.6,33.4,39.6,33.4,39.6,33.4c0.1,0.1,0.3,0.1,0.6,0.1
			c0.1,0,0.3,0,0.4-0.1c0.2-0.1,0.3-0.4,0.3-0.8c0-0.6-0.3-1-0.9-1c-0.1,0-0.3,0-0.3,0c0,0,0,0,0,0.1V33.4z"/>
		<path fill="#FFFFFF" d="M44.3,31.6c0.1-0.2,0.1-0.2,0.1-0.2c0,0,0,0,0.1,0.2c0.1,0.2,0.9,2.3,1.2,3c0.2,0.4,0.3,0.5,0.4,0.6
			c0.1,0,0.1,0,0.2,0c0,0,0,0,0,0c0,0,0,0-0.1,0c-0.1,0-0.4,0-0.8,0c-0.1,0-0.1,0-0.1,0c0,0,0,0,0,0c0,0,0.1-0.1,0-0.1l-0.5-1.2
			c0,0,0,0,0,0h-1.1c0,0,0,0,0,0l-0.3,0.9c0,0.1-0.1,0.2-0.1,0.3c0,0.1,0.1,0.1,0.2,0.1h0c0,0,0,0,0,0c0,0,0,0-0.1,0
			c-0.1,0-0.3,0-0.4,0c-0.1,0-0.3,0-0.6,0c-0.1,0-0.1,0-0.1,0c0,0,0,0,0,0c0,0,0.1,0,0.1,0c0.2,0,0.3-0.2,0.4-0.5L44.3,31.6z
			 M44.8,33.6C44.8,33.6,44.8,33.6,44.8,33.6l-0.5-1.4c0-0.1,0-0.1-0.1,0l-0.4,1.3c0,0,0,0,0,0H44.8z"/>
		<path fill="#FFFFFF" d="M47.8,33.8c0,0.5,0,0.9,0,1.1c0,0.1,0,0.3,0.2,0.3c0.1,0,0.2,0,0.2,0c0,0,0,0,0,0c0,0,0,0-0.1,0
			c-0.3,0-0.6,0-0.6,0s-0.3,0-0.5,0c-0.1,0-0.1,0-0.1,0c0,0,0,0,0,0c0,0,0.1,0,0.1,0c0.1,0,0.1-0.1,0.1-0.3c0-0.2,0-0.6,0-1.1v-2.1
			l-0.7,0c-0.3,0-0.4,0-0.5,0.2C46,32,46,32,46,32c0,0,0,0,0,0c0,0,0,0,0,0c0,0,0.1-0.5,0.1-0.5c0,0,0-0.1,0-0.1c0,0,0.1,0,0.2,0.1
			c0.1,0,0.3,0,0.4,0h1.9c0.2,0,0.3,0,0.4,0c0.1,0,0.1,0,0.1,0c0,0,0,0,0,0.1c0,0.1,0,0.5,0,0.5c0,0,0,0.1,0,0.1c0,0,0,0,0-0.1
			l0-0.1c0-0.1-0.1-0.3-0.6-0.3l-0.6,0V33.8z"/>
		<path fill="#FFFFFF" d="M50.5,33.8c0,0.5,0,0.9,0,1.1c0,0.1,0,0.3,0.2,0.3c0.1,0,0.2,0,0.2,0c0,0,0,0,0,0c0,0,0,0-0.1,0
			c-0.3,0-0.6,0-0.6,0s-0.3,0-0.5,0c-0.1,0-0.1,0-0.1,0c0,0,0,0,0,0c0,0,0.1,0,0.1,0c0.1,0,0.1-0.1,0.1-0.3c0-0.2,0-0.6,0-1.1v-0.9
			c0-0.8,0-0.9,0-1.1c0-0.2-0.1-0.3-0.2-0.3c-0.1,0-0.1,0-0.2,0c0,0,0,0,0,0c0,0,0,0,0.1,0c0.2,0,0.5,0,0.5,0s0.3,0,0.5,0
			c0.1,0,0.1,0,0.1,0c0,0,0,0,0,0c0,0-0.1,0-0.1,0c-0.1,0-0.2,0.1-0.2,0.3c0,0.2,0,0.3,0,1.1V33.8z"/>
		<path fill="#FFFFFF" d="M53.6,31.4c1.1,0,2,0.7,2,1.9c0,1.1-0.8,2-2,2c-1.4,0-1.9-1.1-1.9-2C51.6,32.6,52.2,31.4,53.6,31.4z
			 M53.7,35.1c0.4,0,1.4-0.3,1.4-1.7c0-1.2-0.7-1.8-1.5-1.8c-0.8,0-1.5,0.5-1.5,1.6C52.1,34.4,52.8,35.1,53.7,35.1z"/>
		<path fill="#FFFFFF" d="M56.7,34.6c0,0.4,0.1,0.5,0.2,0.6c0.1,0,0.2,0,0.2,0c0,0,0,0,0,0c0,0,0,0-0.1,0c-0.3,0-0.5,0-0.5,0
			c0,0-0.3,0-0.5,0c0,0-0.1,0-0.1,0c0,0,0,0,0,0c0,0,0.1,0,0.2,0c0.1,0,0.1-0.2,0.1-0.6l0-2.9c0-0.2,0-0.2,0.1-0.2
			c0,0,0.1,0.1,0.2,0.2c0.1,0.1,0.8,0.9,1.6,1.7c0.5,0.5,1,1.1,1.2,1.3l-0.1-2.5c0-0.3,0-0.4-0.2-0.5c-0.1,0-0.2,0-0.2,0
			c0,0,0,0,0,0c0,0,0,0,0.1,0c0.2,0,0.5,0,0.5,0c0.1,0,0.2,0,0.4,0c0.1,0,0.1,0,0.1,0c0,0,0,0-0.1,0c0,0-0.1,0-0.1,0
			c-0.2,0-0.2,0.1-0.2,0.4l0,2.9c0,0.3,0,0.4,0,0.4c0,0-0.1-0.1-0.4-0.3c-0.1,0-0.8-0.8-1.3-1.4c-0.6-0.6-1.1-1.3-1.3-1.4L56.7,34.6
			z"/>
	</g>
	<g display="inline">
		<path fill="none" d="M4,36.7c4.2,2.3,9.5,1,12.2-3.2c2.8-4.3,1.6-10.1-2.6-13c-3.4-2.2-7.7-1.9-10.7,0.5c2.7-1.6,6.2-1.7,9,0.2
			c4,2.6,5.1,8,2.5,12C12.1,36.9,7.7,38.2,4,36.7z"/>
		<path fill="none" d="M5.3,18.9c0.1,0,0.1-0.1,0.2-0.1C5.4,18.8,5.4,18.8,5.3,18.9z"/>
		<path fill="none" d="M19.7,33.6c2.9-5.1,1.2-11.6-3.9-14.5c-4-2.3-8.9-1.7-12.2,1.2c3-2,7-2.3,10.4-0.4c4.7,2.7,6.3,8.8,3.6,13.5
			c-2.4,4.1-7.4,6-11.7,4.5C10.7,40.3,16.9,38.4,19.7,33.6z"/>
		<path fill="#FFFFFF" d="M21.3,32.5c2.3-5.7-0.5-12.2-6.2-14.5c-3.3-1.3-6.8-0.9-9.6,0.7c-0.1,0-0.1,0.1-0.2,0.1
			c-0.1,0-0.1,0.1-0.2,0.1C2,21,0,24.4,0,28.3c0,5.6,4.2,10.3,9.8,11.2C14.6,40,19.4,37.3,21.3,32.5z M11.9,21.3
			c-2.8-1.8-6.3-1.8-9-0.2c3-2.4,7.3-2.7,10.7-0.5c4.3,2.8,5.5,8.6,2.6,13c-2.7,4.1-8,5.5-12.2,3.2c3.7,1.5,8.1,0.1,10.3-3.4
			C17,29.3,15.9,23.9,11.9,21.3z M5.8,38c4.3,1.4,9.4-0.4,11.7-4.5c2.7-4.7,1.1-10.8-3.6-13.5c-3.3-1.9-7.3-1.6-10.4,0.4
			c3.3-2.9,8.2-3.5,12.2-1.2c5.1,2.9,6.8,9.4,3.9,14.5C16.9,38.4,10.7,40.3,5.8,38z"/>
	</g>
</g>
<g id="Hessle_Fed_x5F_logo_x5F_2">
	<g>
		<path fill="none" d="M17.8,34.9c7.5,4.1,17.1,1.8,21.9-5.7c5-7.8,2.9-18.2-4.7-23.2c-6.1-4-13.8-3.4-19.2,0.9
			c4.9-2.9,11.2-3,16.2,0.3c7.1,4.7,9.1,14.3,4.4,21.6C32.2,35.1,24.4,37.5,17.8,34.9z"/>
		<path fill="none" d="M20.1,2.8c0.1-0.1,0.2-0.1,0.3-0.2C20.3,2.7,20.2,2.7,20.1,2.8z"/>
		<path fill="none" d="M45.8,29.3c5.3-9.1,2.2-20.8-6.9-26c-7.2-4.2-16-3-22,2.2c5.4-3.6,12.6-4.1,18.6-0.7
			C44,9.6,46.9,20.5,42,28.9c-4.3,7.4-13.3,10.7-21.1,8.1C29.8,41.3,40.8,37.9,45.8,29.3z"/>
		<path fill="#FFFFFF" d="M48.7,27.3c4.1-10.3-0.9-21.9-11.1-25.9c-5.8-2.3-12.1-1.7-17.2,1.2c-0.1,0.1-0.2,0.1-0.3,0.2
			C20,2.9,19.8,2.9,19.7,3c-5.5,3.7-9.2,9.8-9.2,16.8c0,10.1,7.6,18.4,17.5,20C36.7,40.7,45.3,35.9,48.7,27.3z M31.9,7.2
			c-5-3.3-11.3-3.2-16.2-0.3C21.1,2.6,28.9,2,34.9,6c7.7,5,9.8,15.4,4.7,23.2c-4.8,7.4-14.4,9.8-21.9,5.7c6.7,2.6,14.5,0.2,18.6-6.1
			C41,21.5,39,11.8,31.9,7.2z M20.9,37.1c7.8,2.6,16.8-0.7,21.1-8.1c4.9-8.5,2-19.3-6.4-24.2c-6-3.5-13.2-2.9-18.6,0.7
			c6-5.1,14.8-6.3,22-2.2c9.1,5.3,12.2,16.9,6.9,26C40.8,37.9,29.8,41.3,20.9,37.1z"/>
	</g>
</g>
<g id="Minster_Cycles_x5F_logo" display="none">
	<g display="inline">
		<g>
			<path fill="#FFFFFF" d="M0.6,28.8h0.5c0.2,0,0.3,0,0.5-0.1c0.1-0.1,0.2-0.2,0.2-0.3l0.4-2.9h1l-0.4,2.9c0,0.1,0,0.2,0.1,0.3
				c0.1,0.1,0.3,0.1,0.4,0.1h0.5c0.2,0,0.3,0,0.5-0.1c0.1-0.1,0.2-0.2,0.2-0.3L5,25.4h1l-0.4,2.9c0,0.1,0,0.2,0.1,0.3
				c0.1,0.1,0.3,0.1,0.4,0.1h0.5c0.2,0,0.3,0,0.5-0.1c0.1-0.1,0.2-0.2,0.2-0.3l0.5-3.7c0-0.1,0-0.2-0.1-0.3
				c-0.1-0.1-0.3-0.1-0.4-0.1H1.2c-0.2,0-0.3,0-0.5,0.1c-0.1,0.1-0.2,0.2-0.2,0.3L0,28.4c0,0.1,0,0.2,0.1,0.3
				C0.3,28.8,0.4,28.8,0.6,28.8z M8.4,28.8h0.5c0.1,0,0.3,0,0.4-0.1c0.1-0.1,0.2-0.2,0.2-0.3l0.5-3.7c0-0.1,0-0.2-0.1-0.3
				c-0.1-0.1-0.2-0.1-0.4-0.1H9c-0.2,0-0.3,0-0.4,0.1c-0.1,0.1-0.2,0.2-0.2,0.3l-0.5,3.7c0,0.1,0,0.2,0.1,0.3
				C8.1,28.8,8.3,28.8,8.4,28.8z M22.7,25.5l1.2,0l-0.4,2.9c0,0.1,0,0.2,0.1,0.3c0.1,0.1,0.2,0.1,0.4,0.1h0.5c0.1,0,0.3,0,0.4-0.1
				c0.1-0.1,0.2-0.2,0.2-0.3l0.4-2.9l1.2,0c0.1,0,0.3,0,0.4-0.1c0.1-0.1,0.2-0.2,0.2-0.3l0.1-0.4c0-0.1,0-0.2-0.1-0.3
				c-0.1-0.1-0.2-0.1-0.3-0.1l-4,0c-0.1,0-0.3,0-0.4,0.1c-0.1,0.1-0.2,0.2-0.2,0.3L22.3,25c0,0.1,0,0.2,0.1,0.3
				C22.5,25.4,22.6,25.5,22.7,25.5z M10.1,28.7c0.1,0.1,0.3,0.1,0.4,0.1h0.5c0.2,0,0.3,0,0.5-0.1c0.1-0.1,0.2-0.2,0.2-0.3l0.4-2.7
				c0-0.1,0.1-0.1,0.1-0.2c0.1,0,0.2-0.1,0.3-0.1h1.4c0.1,0,0.2,0,0.3,0.1c0.1,0,0.1,0.1,0.1,0.2l-0.4,2.7c0,0.1,0,0.2,0.1,0.3
				c0.1,0.1,0.3,0.1,0.4,0.1h0.5c0.2,0,0.3,0,0.5-0.1c0.1-0.1,0.2-0.2,0.2-0.3l0.5-3.3c0,0,0-0.1,0-0.1c0-0.2-0.1-0.4-0.3-0.6
				c-0.2-0.1-0.5-0.2-0.8-0.2h-3.1c-0.3,0-0.6,0.1-0.9,0.2c-0.3,0.2-0.4,0.4-0.5,0.6L10,28.4C10,28.5,10,28.6,10.1,28.7z M16.8,27.6
				c-0.2,0-0.3,0-0.5,0.1c-0.1,0.1-0.2,0.2-0.2,0.3L16,28.4c0,0.1,0,0.2,0.1,0.3c0.1,0.1,0.3,0.1,0.4,0.1l4.4,0c0.2,0,0.3,0,0.5-0.1
				c0.1-0.1,0.2-0.2,0.2-0.3l0.3-2c0-0.1,0-0.2-0.1-0.3c-0.1-0.1-0.3-0.1-0.4-0.1h-3.3l0.1-0.5h3.3c0.2,0,0.3,0,0.5-0.1
				c0.1-0.1,0.2-0.2,0.2-0.3l0.1-0.3c0-0.1,0-0.2-0.2-0.3c-0.1-0.1-0.3-0.1-0.4-0.1h-4.4c-0.2,0-0.3,0-0.5,0.1
				c-0.1,0.1-0.2,0.2-0.2,0.3l-0.3,2c0,0.1,0,0.2,0.1,0.3c0.1,0.1,0.3,0.1,0.4,0.1h3.3L20,27.6H16.8z M27,28c0,0.2,0.1,0.4,0.3,0.6
				c0.2,0.1,0.5,0.2,0.8,0.2l3.8,0c0.2,0,0.3,0,0.4-0.1c0.1-0.1,0.2-0.2,0.2-0.3l0-0.3c0-0.1,0-0.2-0.1-0.3
				c-0.1-0.1-0.3-0.1-0.4-0.1h-3.3l0.1-0.5h2.6c0.2,0,0.3,0,0.4-0.1c0.1-0.1,0.2-0.2,0.2-0.3l0.1-0.3c0-0.1,0-0.2-0.1-0.3
				c-0.1-0.1-0.3-0.1-0.4-0.1h-2.6l0.1-0.5h3.3c0.2,0,0.3,0,0.5-0.1c0.1-0.1,0.2-0.2,0.2-0.3l0-0.3c0-0.1,0-0.2-0.1-0.3
				c-0.1-0.1-0.3-0.1-0.4-0.1h-3.8c-0.3,0-0.6,0.1-0.9,0.2c-0.3,0.2-0.4,0.4-0.5,0.6L27,28C27,28,27,28,27,28z M37.9,24.2h-3.1
				c-0.3,0-0.6,0.1-0.9,0.2c-0.3,0.2-0.4,0.4-0.5,0.6l-0.5,3.3c0,0.1,0,0.2,0.1,0.3c0.1,0.1,0.3,0.1,0.4,0.1H34c0.2,0,0.3,0,0.5-0.1
				s0.2-0.2,0.2-0.3l0.2-1.3h0.2l2.2,1.7c0.1,0.1,0.2,0.1,0.4,0.1c0.1,0,0.3,0,0.4-0.1l0.4-0.2c0.1-0.1,0.2-0.2,0.2-0.3
				c0-0.1-0.1-0.2-0.2-0.4c-0.1-0.1-0.2-0.2-0.4-0.3c-0.3-0.2-0.5-0.3-0.6-0.4c0.4-0.1,0.7-0.2,1-0.3c0.2-0.2,0.4-0.3,0.4-0.6
				l0.2-1.2c0,0,0-0.1,0-0.1c0-0.2-0.1-0.4-0.3-0.6C38.5,24.3,38.2,24.2,37.9,24.2z M37,25.8c-0.1,0-0.2,0.1-0.3,0.1h-1.4
				c-0.1,0-0.2,0-0.3-0.1c-0.1,0-0.1-0.1-0.1-0.2c0-0.1,0-0.1,0.1-0.2c0.1,0,0.2-0.1,0.3-0.1h1.4c0.1,0,0.2,0,0.3,0.1
				c0.1,0,0.1,0.1,0.1,0.2C37.2,25.7,37.1,25.8,37,25.8z M4.9,30.7H1.8c-0.3,0-0.6,0.1-0.9,0.2c-0.3,0.2-0.4,0.4-0.5,0.6L0,34.4
				c0,0,0,0.1,0,0.1c0,0.2,0.1,0.4,0.3,0.6c0.2,0.1,0.5,0.2,0.8,0.2h3.1c0.3,0,0.6-0.1,0.9-0.2c0.3-0.2,0.4-0.4,0.5-0.6l0.1-0.6
				c0-0.1,0-0.2-0.1-0.3c-0.1-0.1-0.3-0.1-0.4-0.1H4.7c-0.2,0-0.3,0-0.5,0.1C4.1,33.6,4,33.7,4,33.8c0,0.1-0.2,0.2-0.4,0.2H2.2
				C2.1,34.1,2,34,2,34c-0.1,0-0.1-0.1-0.1-0.2l0.2-1.7c0-0.1,0.1-0.1,0.1-0.2c0.1,0,0.2-0.1,0.3-0.1h1.4c0.2,0,0.3,0,0.3,0.1
				c0,0.3,0.2,0.5,0.5,0.5h0.5c0.1,0,0.3,0,0.4-0.1c0.1-0.1,0.2-0.2,0.3-0.3l0.1-0.6c0,0,0-0.1,0-0.1c0-0.2-0.1-0.4-0.3-0.6
				C5.5,30.8,5.2,30.7,4.9,30.7z M11.7,30.7h-0.5c-0.2,0-0.3,0-0.5,0.1c-0.1,0.1-0.2,0.2-0.2,0.3l-0.1,1c0,0.1-0.1,0.1-0.1,0.2
				c-0.1,0-0.2,0.1-0.3,0.1H8.6c-0.1,0-0.2,0-0.3-0.1c-0.1-0.1-0.1-0.1-0.1-0.2l0.1-1c0-0.1,0-0.2-0.1-0.3c-0.1-0.1-0.3-0.1-0.4-0.1
				H7.3c-0.2,0-0.3,0-0.5,0.1c-0.1,0.1-0.2,0.2-0.2,0.3c0,0.1-0.1,0.3-0.1,0.7c-0.1,0.3-0.1,0.5-0.1,0.7c0,0.7,0.4,1.1,1.1,1.1h2.6
				l0,0.2c0,0.1-0.1,0.1-0.1,0.2c-0.1,0-0.2,0.1-0.3,0.1H6.8c-0.2,0-0.3,0-0.5,0.1c-0.1,0.1-0.2,0.2-0.2,0.3l-0.1,0.3
				c0,0.1,0,0.2,0.1,0.3c0.1,0.1,0.3,0.1,0.4,0.1h3.8c0.3,0,0.6-0.1,0.9-0.2c0.3-0.2,0.4-0.4,0.5-0.6c0.2-1.1,0.3-2.2,0.4-3.3
				c0-0.1,0-0.2-0.1-0.3C12,30.7,11.9,30.7,11.7,30.7z M18,30.9c-0.2-0.1-0.5-0.2-0.8-0.2h-3.1c-0.3,0-0.6,0.1-0.9,0.2
				c-0.3,0.2-0.4,0.4-0.5,0.6l-0.4,2.9c0,0,0,0.1,0,0.1c0,0.2,0.1,0.4,0.3,0.6c0.2,0.1,0.5,0.2,0.8,0.2h3.1c0.3,0,0.6-0.1,0.9-0.2
				c0.3-0.2,0.4-0.4,0.5-0.6l0.1-0.6c0-0.1,0-0.2-0.1-0.3c-0.1-0.1-0.3-0.1-0.4-0.1h-0.5c-0.2,0-0.3,0-0.5,0.1
				c-0.1,0.1-0.2,0.2-0.2,0.3c0,0.1-0.2,0.2-0.4,0.2h-1.4c-0.1,0-0.2,0-0.3-0.1s-0.1-0.1-0.1-0.2l0.2-1.7c0-0.1,0.1-0.1,0.1-0.2
				c0.1,0,0.2-0.1,0.3-0.1h1.4c0.2,0,0.3,0,0.3,0.1c0,0.3,0.2,0.5,0.5,0.5h0.5c0.1,0,0.3,0,0.4-0.1c0.1-0.1,0.2-0.2,0.3-0.3l0.1-0.6
				c0,0,0-0.1,0-0.1C18.3,31.3,18.2,31.1,18,30.9z M28.6,31.9c0.2,0,0.3,0,0.5-0.1c0.1-0.1,0.2-0.2,0.2-0.3l0-0.3
				c0-0.1,0-0.2-0.1-0.3c-0.1-0.1-0.3-0.1-0.4-0.1H25c-0.3,0-0.6,0.1-0.9,0.2c-0.3,0.2-0.4,0.4-0.5,0.6l-0.4,2.7c0,0,0,0,0,0
				c-0.1-0.1-0.3-0.1-0.4-0.1h-2.6l0.4-2.9c0-0.1,0-0.2-0.1-0.3c-0.1-0.1-0.2-0.1-0.4-0.1h-0.5c-0.2,0-0.3,0-0.5,0.1
				c-0.1,0.1-0.2,0.2-0.2,0.3l-0.5,3.7c0,0.1,0,0.2,0.1,0.3c0.1,0.1,0.3,0.1,0.4,0.1h3.7c0.2,0,0.3,0,0.4-0.1
				c0.1-0.1,0.2-0.2,0.2-0.3l0,0c0.1,0.1,0.1,0.2,0.2,0.2c0.2,0.1,0.5,0.2,0.8,0.2l3.8,0c0.2,0,0.3,0,0.4-0.1
				c0.1-0.1,0.2-0.2,0.2-0.3l0-0.3c0-0.1,0-0.2-0.1-0.3c-0.1-0.1-0.3-0.1-0.4-0.1H25l0.1-0.5h2.6c0.2,0,0.3,0,0.4-0.1
				c0.1-0.1,0.2-0.2,0.2-0.3l0.1-0.3c0-0.1,0-0.2-0.1-0.3c-0.1-0.1-0.3-0.1-0.4-0.1h-2.6l0.1-0.5H28.6z M34.7,30.7h-4.4
				c-0.2,0-0.3,0-0.5,0.1c-0.1,0.1-0.2,0.2-0.2,0.3l-0.3,2c0,0.1,0,0.2,0.1,0.3c0.1,0.1,0.3,0.1,0.4,0.1h3.3l-0.1,0.5h-3.3
				c-0.2,0-0.3,0-0.5,0.1c-0.1,0.1-0.2,0.2-0.2,0.3l-0.1,0.4c0,0.1,0,0.2,0.1,0.3c0.1,0.1,0.3,0.1,0.4,0.1l4.4,0
				c0.2,0,0.3,0,0.5-0.1c0.1-0.1,0.2-0.2,0.2-0.3l0.3-2c0-0.1,0-0.2-0.1-0.3c-0.1-0.1-0.3-0.1-0.4-0.1h-3.3l0.1-0.5h3.3
				c0.2,0,0.3,0,0.5-0.1c0.1-0.1,0.2-0.2,0.2-0.3l0.1-0.3c0-0.1,0-0.2-0.2-0.3C35,30.7,34.9,30.7,34.7,30.7z M58.8,24.7
				C58,24,57,23.5,55.9,23.5c0,0,0,0,0,0c-0.9,0-1.7,0.3-2.3,0.7H43.4c-0.5,0-1.1,0.1-1.5,0.4c-0.2,0.1-0.5,0.3-0.7,0.6
				c-0.2,0.2-0.3,0.6-0.4,0.9l0,0l-1,7c0,0.1,0,0.2,0,0.3c0,0.3,0.1,0.6,0.2,0.9c0.1,0.3,0.3,0.5,0.6,0.6c0.2,0.2,0.5,0.3,0.7,0.4
				c0.3,0.1,0.5,0.1,0.8,0.1h1c0.5,0,1.1-0.1,1.5-0.4c0.2-0.1,0.5-0.3,0.6-0.6c0,0,0,0,0-0.1c0.1,0.2,0.3,0.4,0.5,0.6
				c0.2,0.2,0.5,0.3,0.7,0.4c0.3,0.1,0.5,0.1,0.8,0.1h1c0.5,0,1.1-0.1,1.5-0.4c0.2-0.1,0.5-0.3,0.6-0.6c0,0,0,0,0-0.1
				c0.1,0.2,0.3,0.4,0.5,0.6c0.2,0.2,0.5,0.3,0.7,0.4c0.3,0.1,0.5,0.1,0.8,0.1h1c0,0,0,0,0,0c0.5,0,1-0.1,1.5-0.4
				c0.2-0.1,0.5-0.3,0.6-0.6c0.2-0.2,0.3-0.6,0.4-0.9l0.2-1.7c0.9-0.1,1.7-0.6,2.3-1.1c0.7-0.7,1.2-1.8,1.2-2.9v0
				C60,26.5,59.5,25.5,58.8,24.7z M55.9,31l-0.3,2.4c0,0.2-0.1,0.4-0.2,0.6c-0.1,0.2-0.3,0.3-0.4,0.4c-0.3,0.2-0.7,0.3-1.1,0.3h-1
				c0,0,0,0,0,0c-0.4,0-0.8-0.1-1.1-0.3c-0.1-0.1-0.3-0.2-0.4-0.4c-0.1-0.2-0.1-0.3-0.1-0.5c0-0.1,0-0.1,0-0.2l0.7-4.9H51l-0.7,5
				c0,0.2-0.1,0.4-0.2,0.6c-0.1,0.2-0.3,0.3-0.4,0.4c-0.3,0.2-0.7,0.3-1.1,0.3h-1c-0.4,0-0.8-0.1-1.1-0.3c-0.1-0.1-0.3-0.2-0.4-0.4
				c-0.1-0.2-0.1-0.3-0.1-0.5c0-0.1,0-0.1,0-0.2l0.7-4.9h-0.8l-0.7,5c0,0.2-0.1,0.4-0.2,0.6c-0.1,0.2-0.3,0.3-0.4,0.4
				c-0.3,0.2-0.7,0.3-1.1,0.3h-1c-0.4,0-0.8-0.1-1.1-0.3c-0.1-0.1-0.3-0.2-0.4-0.4c-0.1-0.2-0.1-0.3-0.1-0.5c0-0.1,0-0.1,0-0.2l1-7
				l0,0c0-0.2,0.1-0.4,0.2-0.6c0.1-0.2,0.3-0.3,0.5-0.4c0.3-0.2,0.7-0.3,1.1-0.3h10.4c0.6-0.4,1.3-0.7,2-0.6c1.8,0,3.3,1.5,3.3,3.4
				C59.1,29.5,57.7,31,55.9,31z M57.3,25.5l-2.7,0c-0.3,0-0.6,0.1-0.8,0.2c-0.2,0.1-0.4,0.3-0.4,0.5l-0.4,2.4c0,0,0,0.1,0,0.1
				c0,0.2,0.1,0.3,0.3,0.5c0.2,0.1,0.4,0.2,0.7,0.2l2.7,0c0.3,0,0.6-0.1,0.8-0.2s0.4-0.3,0.4-0.5l0.1-0.5c0-0.1,0-0.2-0.1-0.3
				c-0.1-0.1-0.2-0.1-0.4-0.1l-0.4,0c-0.2,0-0.3,0-0.4,0.1c-0.1,0.1-0.2,0.2-0.2,0.3c0,0.1-0.1,0.2-0.4,0.2l-1.2,0
				c-0.1,0-0.2,0-0.2-0.1c-0.1,0-0.1-0.1-0.1-0.1l0.2-1.4c0-0.1,0-0.1,0.1-0.1c0.1,0,0.1-0.1,0.2-0.1l1.2,0c0.1,0,0.2,0,0.3,0.1
				c0,0.3,0.2,0.4,0.5,0.4l0.4,0c0.1,0,0.2,0,0.4-0.1c0.1-0.1,0.2-0.1,0.2-0.2l0.1-0.5c0,0,0,0,0-0.1c0-0.2-0.1-0.3-0.3-0.5
				C57.8,25.6,57.6,25.5,57.3,25.5z"/>
		</g>
	</g>
</g>
<g id="Headlands_School" display="none">
	<g display="inline">
		<path fill="#FFFFFF" d="M30,24.9c-0.2,0-0.3,0.2-0.3,0.4c0,0.2,0.2,0.4,0.3,0.4c0.2,0,0.3-0.2,0.3-0.4
			C30.3,25.1,30.2,24.9,30,24.9z"/>
		<path fill="#FFFFFF" d="M33.7,17.9l1.8,1.7l0.1-0.1c0.3-0.2,0.9-0.7,1.1-0.9c0.1-0.1,0.1-0.2,0.2-0.3c0.1-0.3,0-0.6-0.2-0.8
			c-0.3-0.3-0.6-0.8-0.8-1.4l0-0.1c-0.2-0.5-0.2-1.1-0.2-1.6c0-0.3-0.1-0.6-0.3-0.7c-0.1-0.1-0.2-0.1-0.3-0.1
			c-0.3,0-1.1-0.1-1.4-0.1l-0.2,0L33.1,16C33.4,16.5,33.7,17.2,33.7,17.9z"/>
		<path fill="#FFFFFF" d="M34,12.5c0.1,0.1,0.4,0,0.5-0.2c0.1-0.2,0.1-0.4,0-0.5c-0.1-0.1-0.4,0-0.5,0.2
			C33.9,12.1,33.9,12.4,34,12.5z"/>
		<path fill="#FFFFFF" d="M33.2,19.8l1.7-0.2l-1.3-1.1C33.6,19,33.5,19.4,33.2,19.8z"/>
		<path fill="#FFFFFF" d="M23,20c-0.2,0.1-0.4,0.3-0.3,0.4c0.1,0.2,0.3,0.2,0.5,0.2c0.2-0.1,0.4-0.3,0.3-0.4
			C23.4,20,23.2,19.9,23,20z"/>
		<path fill="#FFFFFF" d="M26,12.5c0.1-0.1,0.1-0.4,0-0.5c-0.1-0.2-0.4-0.3-0.5-0.2c-0.1,0.1-0.1,0.4,0,0.5
			C25.6,12.5,25.8,12.6,26,12.5z"/>
		<path fill="#FFFFFF" d="M35.8,21.9c0-0.1,0-0.2,0-0.3c0-0.3-0.3-1.1-0.4-1.4l0-0.2l-2.5,0.3c-0.4,0.5-1,1-1.7,1.2l-1,2.3l0.1,0.1
			c0.3,0.2,0.9,0.7,1.2,0.8c0.1,0.1,0.2,0.1,0.3,0.1c0.3,0,0.5-0.2,0.7-0.4c0.2-0.4,0.6-0.8,1.1-1.2l0.1-0.1c0.5-0.3,1-0.6,1.4-0.6
			C35.4,22.4,35.7,22.2,35.8,21.9z"/>
		<path fill="#FFFFFF" d="M30,21.7c-0.2,0-0.5,0-0.7-0.1l0.7,1.5l0.7-1.5C30.5,21.7,30.2,21.7,30,21.7z"/>
		<path fill="#FFFFFF" d="M27.1,20.3L24.6,20l-0.1,0.2c-0.1,0.4-0.3,1.1-0.4,1.3c0,0.1,0,0.2,0,0.3c0.1,0.3,0.3,0.5,0.6,0.5
			c0.5,0.1,1,0.3,1.5,0.6l0.1,0.1c0.5,0.3,0.8,0.8,1,1.2c0.1,0.3,0.4,0.4,0.7,0.4c0.1,0,0.2,0,0.3-0.1c0.3-0.1,0.9-0.6,1.2-0.8
			l0.1-0.1l-1-2.3C28.1,21.3,27.5,20.9,27.1,20.3z"/>
		<path fill="#FFFFFF" d="M41.1,14.6l0.1-0.3l-0.3-0.1c-0.5-0.3-1.2-0.5-1.8-0.5h0c-0.1,0-0.2,0-0.3,0c0.1-0.2,0.1-0.4,0.1-0.6
			c0.1-0.5,0-1-0.3-1.4c-0.3-0.4-0.7-0.7-1.2-0.7c-0.6-0.1-1.2-0.4-1.7-0.8l-0.2-0.1c-0.6-0.4-1-0.9-1.2-1.4
			c-0.2-0.4-0.6-0.8-1.1-0.9c-0.5-0.2-1-0.1-1.4,0.1c-0.1,0.1-0.3,0.2-0.5,0.3c-0.2-0.7-0.5-1.3-1.1-1.8L30,6.3l-0.2,0.2
			c-0.6,0.5-0.9,1.1-1.1,1.8C28.5,8.1,28.3,8,28.1,8c-0.6-0.3-1.4-0.3-1.9,0.2c-0.2,0.2-0.4,0.4-0.6,0.7c-0.2,0.5-0.7,1-1.3,1.4
			l-0.2,0.1c-0.6,0.4-1.2,0.7-1.7,0.8c-0.3,0-0.6,0.2-0.8,0.3c-0.6,0.4-0.9,1.1-0.7,1.8c0,0.1,0.1,0.4,0.1,0.6c-0.1,0-0.2,0-0.3,0
			c-0.6,0-1.2,0.2-1.8,0.5l-0.3,0.1l0.1,0.3c0.3,0.7,0.8,1.2,1.4,1.6c-0.2,0.2-0.4,0.3-0.5,0.4c-0.3,0.3-0.5,0.8-0.5,1.3
			c0,0.5,0.2,1,0.5,1.3c0.4,0.4,0.7,1,0.9,1.6l0.1,0.2c0.2,0.7,0.3,1.3,0.2,1.9c-0.1,0.5,0,1,0.3,1.4c0.3,0.4,0.7,0.7,1.2,0.7
			c0.1,0,0.4,0,0.6,0.1c-0.3,0.6-0.3,1.4-0.2,2.1l0.1,0.3l0.3,0c0.7-0.1,1.4-0.4,1.9-0.8c0.1,0.2,0.2,0.4,0.2,0.6
			c0.2,0.4,0.6,0.8,1.1,0.9c0.5,0.2,1,0.1,1.4-0.1c0.5-0.3,1.2-0.4,1.9-0.4l0.2,0c0.7,0,1.3,0.1,1.8,0.4c0.6,0.3,1.4,0.3,1.9-0.2
			c0.2-0.2,0.4-0.4,0.6-0.7c0.1-0.1,0.2-0.3,0.2-0.6c0.5,0.5,1.2,0.8,2,0.8l0.3,0l0.1-0.3c0.2-0.7,0.1-1.5-0.2-2.1
			c0.2,0,0.5,0,0.6-0.1c0.3,0,0.6-0.2,0.8-0.3c0.6-0.4,0.9-1.1,0.7-1.8c-0.1-0.6,0-1.2,0.2-1.9l0.1-0.2c0.2-0.7,0.5-1.2,0.9-1.6
			c0.3-0.3,0.5-0.8,0.5-1.3c0-0.5-0.2-1-0.5-1.3c-0.1-0.1-0.3-0.3-0.5-0.4C40.3,15.9,40.8,15.3,41.1,14.6z M20.9,15.8
			c-0.4-0.2-0.8-0.5-1-0.9l1.5,0.5C21.3,15.5,21.1,15.7,20.9,15.8z M19.9,14.6c0.3-0.1,0.6-0.2,0.9-0.2c0.2,0,0.3,0,0.5,0.1
			c0.1,0.3,0.1,0.5,0.2,0.6L19.9,14.6z M33.8,11.8c0.2-0.3,0.7-0.4,0.9-0.2c0.3,0.2,0.3,0.6,0.1,1c-0.2,0.3-0.7,0.4-0.9,0.2
			C33.6,12.6,33.5,12.1,33.8,11.8z M30.2,7.4c0.3,0.4,0.5,0.8,0.5,1.3c-0.2,0.1-0.4,0.3-0.5,0.4L30.2,7.4z M29.8,7.4l0,1.6
			c-0.1-0.1-0.3-0.2-0.5-0.4C29.3,8.2,29.5,7.8,29.8,7.4z M25.3,11.5c0.3-0.2,0.7-0.1,0.9,0.2c0.2,0.3,0.2,0.8-0.1,1
			c-0.3,0.2-0.7,0.1-0.9-0.2C25,12.2,25,11.7,25.3,11.5z M23.3,20.9c-0.4,0.1-0.8,0-0.9-0.4c-0.1-0.3,0.1-0.7,0.5-0.8
			c0.4-0.1,0.8,0,0.9,0.4C23.9,20.4,23.7,20.8,23.3,20.9z M23.9,25.2c0.3,0,0.5,0,0.6,0l-1,1.3C23.6,26.1,23.7,25.6,23.9,25.2z
			 M23.9,26.8l1-1.3c0,0.1,0.1,0.3,0.2,0.6C24.7,26.4,24.3,26.6,23.9,26.8z M30,26.1c-0.3,0-0.6-0.3-0.6-0.8s0.3-0.8,0.6-0.8
			c0.3,0,0.6,0.3,0.6,0.8S30.3,26.1,30,26.1z M34,23.5l-0.1,0.1c-0.4,0.3-0.7,0.6-0.9,1c-0.2,0.4-0.7,0.7-1.2,0.7
			c-0.2,0-0.4,0-0.6-0.1c-0.3-0.2-1.2-0.8-1.2-0.8l-0.1,0l0,0l0,0l-0.1,0c0,0-0.9,0.6-1.2,0.8c-0.2,0.1-0.4,0.1-0.6,0.1
			c-0.5,0-0.9-0.3-1.2-0.7c-0.2-0.3-0.5-0.7-0.9-1l-0.1-0.1c-0.4-0.3-0.8-0.5-1.2-0.5c-0.3-0.1-0.6-0.2-0.8-0.5
			c-0.2-0.3-0.3-0.6-0.2-1c0.1-0.4,0.4-1.4,0.4-1.4l0-0.1l0,0l0,0l-0.1,0c0,0-0.9-0.7-1.1-0.9c-0.2-0.2-0.4-0.6-0.4-0.9
			c0-0.3,0.1-0.7,0.4-0.9c0.3-0.3,0.5-0.7,0.7-1.1l0-0.1c0.2-0.5,0.2-0.9,0.1-1.3c-0.1-0.3,0-0.7,0.2-1c0.2-0.3,0.5-0.5,0.8-0.5
			c0.3-0.1,1.3-0.1,1.5-0.1l0.1,0l0,0l0,0l0-0.1c0,0,0.4-1,0.5-1.4c0.2-0.4,0.7-0.7,1.2-0.7c0.2,0,0.4,0,0.6,0.1
			c0.3,0.2,0.8,0.3,1.3,0.3l0.2,0c0.5,0,0.9-0.1,1.3-0.3c0.2-0.1,0.4-0.1,0.6-0.1c0.5,0,0.9,0.3,1.2,0.7c0.2,0.3,0.5,1.4,0.5,1.4
			l0,0.1l0,0l0,0l0.1,0c0.2,0,1.1,0,1.5,0.1c0.3,0.1,0.6,0.2,0.8,0.5c0.2,0.3,0.3,0.6,0.2,1c-0.1,0.4,0,0.8,0.1,1.3l0,0.1
			c0.2,0.5,0.4,0.9,0.7,1.2c0.2,0.2,0.4,0.6,0.4,0.9c0,0.3-0.1,0.7-0.4,0.9c-0.3,0.3-1.1,0.9-1.1,0.9l-0.1,0l0,0l0,0l0,0.1
			c0,0,0.3,1.1,0.4,1.4c0.1,0.3,0,0.7-0.2,1c-0.2,0.3-0.5,0.5-0.8,0.5C34.9,23,34.4,23.2,34,23.5z M34.9,26c0.1-0.3,0.2-0.5,0.2-0.6
			l1,1.3C35.6,26.6,35.2,26.4,34.9,26z M35.4,25.2c0.1,0,0.4,0,0.6,0c0.2,0.4,0.3,0.9,0.3,1.4L35.4,25.2z M37.6,20.5
			c-0.1,0.3-0.5,0.5-0.9,0.4c-0.4-0.1-0.6-0.5-0.5-0.8c0.1-0.3,0.5-0.5,0.9-0.4C37.5,19.8,37.7,20.2,37.6,20.5z M38.7,14.5
			c0.2,0,0.3-0.1,0.5-0.1h0c0.3,0,0.6,0.1,0.9,0.2l-1.6,0.5C38.5,14.9,38.6,14.7,38.7,14.5z M39.1,15.8c-0.2-0.2-0.4-0.3-0.5-0.4
			l1.6-0.5C39.9,15.3,39.5,15.6,39.1,15.8z"/>
		<path fill="#FFFFFF" d="M37,20c-0.2-0.1-0.5,0-0.5,0.2c-0.1,0.2,0.1,0.4,0.3,0.4c0.2,0.1,0.5,0,0.5-0.2C37.4,20.3,37.3,20.1,37,20
			z"/>
		<circle fill="#FFFFFF" cx="30" cy="18" r="3.1"/>
		<path fill="#FFFFFF" d="M26.8,19.8c-0.2-0.4-0.4-0.8-0.4-1.3l-1.3,1.1L26.8,19.8z"/>
		<path fill="#FFFFFF" d="M30,14.3c0.4,0,0.7,0.1,1,0.1l2.2-1.2l-0.1-0.2c-0.1-0.4-0.4-1.1-0.5-1.3c-0.1-0.1-0.1-0.2-0.2-0.3
			c-0.1-0.1-0.3-0.1-0.4-0.1c-0.1,0-0.2,0-0.3,0.1c-0.4,0.2-1,0.3-1.5,0.3l-0.2,0c-0.6,0-1.1-0.1-1.5-0.3c-0.1-0.1-0.2-0.1-0.3-0.1
			c-0.2,0-0.3,0.1-0.4,0.1c-0.1,0.1-0.2,0.2-0.2,0.3c-0.1,0.3-0.4,1-0.5,1.3l-0.1,0.2l2.2,1.2C29.3,14.4,29.6,14.3,30,14.3z"/>
		<path fill="#FFFFFF" d="M33,13.9l-1.5,0.8c0.4,0.2,0.8,0.5,1.1,0.8L33,13.9z"/>
		<path fill="#FFFFFF" d="M27,13.9l0.3,1.7c0.3-0.3,0.7-0.6,1.1-0.8L27,13.9z"/>
		<path fill="#FFFFFF" d="M24.5,19.6l1.8-1.7c0-0.7,0.3-1.4,0.6-2l-0.5-2.4l-0.2,0c-0.4,0-1.1,0-1.4,0.1c-0.1,0-0.2,0.1-0.3,0.1
			c-0.2,0.2-0.3,0.4-0.3,0.7c0.1,0.5,0,1-0.2,1.6l0,0.1c-0.2,0.5-0.5,1-0.8,1.4C23,17.7,23,18,23.1,18.3c0,0.1,0.1,0.2,0.2,0.3
			c0.2,0.2,0.9,0.7,1.1,0.9L24.5,19.6z"/>
	</g>
	<g display="inline">
		<path fill="#FFFFFF" d="M0,31.5C0,31.5,0.1,31.4,0,31.5l0.5-0.1c0,0,0.1,0,0.1,0.1v1.1h1.4v-1.1c0,0,0-0.1,0.1-0.1h0.4
			c0,0,0.1,0,0.1,0.1v2.8c0,0,0,0.1-0.1,0.1H2c0,0-0.1,0-0.1-0.1v-1.2H0.6v1.2c0,0,0,0.1-0.1,0.1H0.1c0,0-0.1,0-0.1-0.1V31.5z"/>
		<path fill="#FFFFFF" d="M4,31.5C4,31.5,4.1,31.4,4,31.5l1.8-0.1c0,0,0.1,0,0.1,0.1v0.3c0,0,0,0.1-0.1,0.1H4.6v0.7h1
			c0,0,0.1,0,0.1,0.1V33c0,0,0,0.1-0.1,0.1h-1v0.7h1.2c0,0,0.1,0,0.1,0.1v0.3c0,0,0,0.1-0.1,0.1H4.1c0,0-0.1,0-0.1-0.1V31.5z"/>
		<path fill="#FFFFFF" d="M7.4,34.2l1.3-2.8c0,0,0,0,0.1,0h0c0,0,0.1,0,0.1,0l1.3,2.8c0,0.1,0,0.1-0.1,0.1H9.8c-0.1,0-0.1,0-0.1-0.1
			l-0.2-0.5H8.2L8,34.2c0,0-0.1,0.1-0.1,0.1H7.5C7.4,34.3,7.4,34.3,7.4,34.2z M9.2,33.3l-0.4-0.9h0l-0.4,0.9H9.2z"/>
		<path fill="#FFFFFF" d="M11.8,31.5C11.8,31.5,11.8,31.4,11.8,31.5l1.1-0.1c0.8,0,1.5,0.7,1.5,1.5c0,0.8-0.7,1.5-1.5,1.5h-1
			c0,0-0.1,0-0.1-0.1V31.5z M12.8,33.8c0.5,0,0.9-0.4,0.9-1c0-0.5-0.4-0.9-0.9-0.9h-0.5v1.9H12.8z"/>
		<path fill="#FFFFFF" d="M15.8,31.5C15.8,31.5,15.9,31.4,15.8,31.5l0.5-0.1c0,0,0.1,0,0.1,0.1v2.3h1.1c0,0,0.1,0,0.1,0.1v0.3
			c0,0,0,0.1-0.1,0.1h-1.5c0,0-0.1,0-0.1-0.1V31.5z"/>
		<path fill="#FFFFFF" d="M19.1,34.2l1.3-2.8c0,0,0,0,0.1,0h0c0,0,0.1,0,0.1,0l1.3,2.8c0,0.1,0,0.1-0.1,0.1h-0.4
			c-0.1,0-0.1,0-0.1-0.1l-0.2-0.5h-1.2l-0.2,0.5c0,0-0.1,0.1-0.1,0.1h-0.4C19.1,34.3,19.1,34.3,19.1,34.2z M20.9,33.3l-0.4-0.9h0
			L20,33.3H20.9z"/>
		<path fill="#FFFFFF" d="M23.4,31.4C23.4,31.4,23.5,31.4,23.4,31.4l0.2-0.1l1.7,1.8h0v-1.7c0,0,0-0.1,0.1-0.1h0.4
			c0,0,0.1,0,0.1,0.1v2.8c0,0,0,0.1-0.1,0.1h-0.1L24,32.5h0v1.8c0,0,0,0.1-0.1,0.1h-0.4c0,0-0.1,0-0.1-0.1V31.4z"/>
		<path fill="#FFFFFF" d="M27.4,31.5C27.4,31.5,27.5,31.4,27.4,31.5l1.1-0.1c0.8,0,1.5,0.7,1.5,1.5c0,0.8-0.7,1.5-1.5,1.5h-1
			c0,0-0.1,0-0.1-0.1V31.5z M28.4,33.8c0.5,0,0.9-0.4,0.9-1c0-0.5-0.4-0.9-0.9-0.9H28v1.9H28.4z"/>
		<path fill="#FFFFFF" d="M31.5,33.9l0.1-0.3c0-0.1,0.1-0.1,0.1,0c0,0,0.4,0.3,0.6,0.3c0.2,0,0.4-0.1,0.4-0.3c0-0.2-0.2-0.4-0.5-0.5
			c-0.4-0.2-0.8-0.4-0.8-0.9c0-0.4,0.3-0.8,0.9-0.8c0.4,0,0.8,0.2,0.8,0.3c0,0,0.1,0.1,0,0.1L33.2,32c0,0.1-0.1,0.1-0.1,0.1
			c0,0-0.4-0.2-0.6-0.2c-0.2,0-0.4,0.2-0.4,0.3c0,0.2,0.2,0.3,0.5,0.5c0.4,0.2,0.9,0.4,0.9,0.9c0,0.4-0.4,0.8-1,0.8
			c-0.5,0-0.8-0.2-0.9-0.3C31.5,34,31.5,34,31.5,33.9z"/>
		<path fill="#FFFFFF" d="M37.5,33.9l0.1-0.3c0-0.1,0.1-0.1,0.1,0c0,0,0.4,0.3,0.6,0.3c0.2,0,0.4-0.1,0.4-0.3c0-0.2-0.2-0.4-0.5-0.5
			c-0.4-0.2-0.8-0.4-0.8-0.9c0-0.4,0.3-0.8,0.9-0.8c0.4,0,0.8,0.2,0.8,0.3c0,0,0.1,0.1,0,0.1L39.1,32c0,0.1-0.1,0.1-0.1,0.1
			c0,0-0.4-0.2-0.6-0.2c-0.2,0-0.4,0.2-0.4,0.3c0,0.2,0.2,0.3,0.5,0.5c0.4,0.2,0.9,0.4,0.9,0.9c0,0.4-0.4,0.8-1,0.8
			c-0.5,0-0.8-0.2-0.9-0.3C37.5,34,37.4,34,37.5,33.9z"/>
		<path fill="#FFFFFF" d="M42.4,31.4c0.4,0,0.7,0.1,1,0.4c0,0,0,0.1,0,0.1l-0.3,0.3c0,0-0.1,0-0.1,0c-0.2-0.2-0.4-0.2-0.6-0.2
			c-0.5,0-0.9,0.4-0.9,1c0,0.5,0.4,1,0.9,1c0.2,0,0.5-0.1,0.6-0.2c0,0,0.1,0,0.1,0l0.3,0.3c0,0,0,0.1,0,0.1c-0.3,0.3-0.6,0.4-1,0.4
			c-0.8,0-1.5-0.7-1.5-1.5C40.9,32,41.6,31.4,42.4,31.4z"/>
		<path fill="#FFFFFF" d="M45,31.5C45,31.5,45.1,31.4,45,31.5l0.5-0.1c0,0,0.1,0,0.1,0.1v1.1h1.4v-1.1c0,0,0-0.1,0.1-0.1h0.4
			c0,0,0.1,0,0.1,0.1v2.8c0,0,0,0.1-0.1,0.1H47c0,0-0.1,0-0.1-0.1v-1.2h-1.4v1.2c0,0,0,0.1-0.1,0.1h-0.4c0,0-0.1,0-0.1-0.1V31.5z"/>
		<path fill="#FFFFFF" d="M50.5,31.4c0.8,0,1.5,0.7,1.5,1.5c0,0.8-0.7,1.5-1.5,1.5c-0.8,0-1.5-0.7-1.5-1.5
			C49,32,49.7,31.4,50.5,31.4z M50.5,33.8c0.5,0,1-0.4,1-1s-0.4-1-1-1s-1,0.4-1,1S50,33.8,50.5,33.8z"/>
		<path fill="#FFFFFF" d="M55.1,31.4c0.8,0,1.5,0.7,1.5,1.5c0,0.8-0.7,1.5-1.5,1.5c-0.8,0-1.5-0.7-1.5-1.5
			C53.6,32,54.2,31.4,55.1,31.4z M55.1,33.8c0.5,0,1-0.4,1-1s-0.4-1-1-1s-1,0.4-1,1S54.5,33.8,55.1,33.8z"/>
		<path fill="#FFFFFF" d="M58.1,31.5C58.1,31.5,58.2,31.4,58.1,31.5l0.5-0.1c0,0,0.1,0,0.1,0.1v2.3h1.1c0,0,0.1,0,0.1,0.1v0.3
			c0,0,0,0.1-0.1,0.1h-1.5c0,0-0.1,0-0.1-0.1V31.5z"/>
	</g>
	<g display="inline">
		<path fill="#FFFFFF" d="M19.8,39.6c0,0,0.1-0.1,0.1-0.1c0,0,0.1-0.1,0.1,0c0,0,0.3,0.3,0.6,0.3c0.3,0,0.4-0.2,0.4-0.3
			c0-0.2-0.2-0.4-0.6-0.5c-0.4-0.2-0.7-0.4-0.7-0.8c0-0.3,0.2-0.7,0.8-0.7c0.4,0,0.6,0.2,0.7,0.2c0,0,0.1,0.1,0,0.1
			c0,0-0.1,0.1-0.1,0.1c0,0-0.1,0.1-0.1,0c0,0-0.3-0.2-0.5-0.2c-0.3,0-0.4,0.2-0.4,0.3c0,0.2,0.2,0.3,0.5,0.5
			c0.4,0.2,0.8,0.4,0.8,0.8c0,0.4-0.3,0.7-0.8,0.7c-0.4,0-0.7-0.2-0.8-0.3C19.8,39.6,19.7,39.6,19.8,39.6z"/>
		<path fill="#FFFFFF" d="M22.1,37.4C22.1,37.4,22.1,37.4,22.1,37.4l0.3-0.1c0,0,0.1,0,0.1,0.1v2.4c0,0,0,0.1-0.1,0.1h-0.2
			c0,0-0.1,0-0.1-0.1V37.4z"/>
		<path fill="#FFFFFF" d="M23.4,37.4C23.4,37.4,23.5,37.3,23.4,37.4l0.2-0.1l1.6,1.8h0v-1.7c0,0,0-0.1,0.1-0.1h0.2
			c0,0,0.1,0,0.1,0.1v2.5c0,0,0,0.1-0.1,0.1h-0.1l-1.6-1.9h0v1.8c0,0,0,0.1-0.1,0.1h-0.2c0,0-0.1,0-0.1-0.1V37.4z"/>
		<path fill="#FFFFFF" d="M27.6,37.3c0.4,0,0.6,0.1,0.9,0.3c0,0,0,0.1,0,0.1l-0.2,0.2c0,0-0.1,0-0.1,0c-0.2-0.1-0.4-0.2-0.6-0.2
			c-0.5,0-0.9,0.4-0.9,1c0,0.5,0.4,0.9,0.9,0.9c0.3,0,0.5-0.1,0.6-0.2c0,0,0.1,0,0.1,0l0.2,0.2c0,0,0,0.1,0,0.1
			c-0.2,0.2-0.6,0.4-0.9,0.4c-0.7,0-1.3-0.6-1.3-1.3C26.3,37.9,26.9,37.3,27.6,37.3z"/>
		<path fill="#FFFFFF" d="M29.3,37.4C29.3,37.4,29.3,37.4,29.3,37.4l1.5-0.1c0,0,0.1,0,0.1,0.1v0.2c0,0,0,0.1-0.1,0.1h-1.2v0.7h1
			c0,0,0.1,0,0.1,0.1v0.2c0,0,0,0.1-0.1,0.1h-1v0.8h1.2c0,0,0.1,0,0.1,0.1v0.2c0,0,0,0.1-0.1,0.1h-1.5c0,0-0.1,0-0.1-0.1V37.4z"/>
		<path fill="#FFFFFF" d="M33,38l-0.3,0.1c0,0-0.1,0-0.1,0l0-0.1c0,0,0-0.1,0-0.1l0.5-0.5h0.2c0,0,0.1,0,0.1,0.1v2.4
			c0,0,0,0.1-0.1,0.1h-0.2c0,0-0.1,0-0.1-0.1V38z"/>
		<path fill="#FFFFFF" d="M34.4,39.7c0.2-0.1,0.8-0.4,0.9-0.8c0,0-0.2,0.1-0.5,0.1c-0.4,0-0.8-0.3-0.8-0.8c0-0.5,0.4-0.8,0.8-0.8
			c0.6,0,0.9,0.5,0.9,1c0,1-0.9,1.5-1.2,1.6c0,0-0.1,0-0.1,0l-0.1-0.2C34.3,39.7,34.4,39.7,34.4,39.7z M35.4,38.4
			c0-0.3-0.1-0.7-0.5-0.7c-0.3,0-0.5,0.2-0.5,0.5c0,0.3,0.2,0.5,0.5,0.5C35.2,38.7,35.4,38.5,35.4,38.4z"/>
		<path fill="#FFFFFF" d="M37.5,37.4C37.6,37.3,37.6,37.4,37.5,37.4l0.2,0.2c0,0,0,0.1-0.1,0.1c-0.2,0.1-0.8,0.4-0.9,0.8
			c0,0,0.2-0.1,0.5-0.1c0.4,0,0.8,0.3,0.8,0.8c0,0.5-0.4,0.8-0.8,0.8c-0.6,0-0.9-0.5-0.9-1C36.3,37.9,37.2,37.5,37.5,37.4z
			 M37.6,39.1c0-0.3-0.2-0.5-0.5-0.5c-0.3,0-0.5,0.2-0.5,0.3c0,0.3,0.1,0.7,0.5,0.7C37.4,39.6,37.6,39.4,37.6,39.1z"/>
		<path fill="#FFFFFF" d="M38.6,39.5c0,0,0.1-0.1,0.1-0.1c0,0,0.1,0,0.1,0c0,0,0.2,0.2,0.5,0.2c0.3,0,0.5-0.3,0.5-0.5
			c0-0.3-0.2-0.5-0.5-0.5h-0.6c-0.1,0-0.1-0.1-0.1-0.1v-1c0,0,0-0.1,0.1-0.1h1.1c0,0,0.1,0,0.1,0.1v0.2c0,0,0,0.1-0.1,0.1h-0.9v0.6
			h0.4c0.5,0,0.8,0.3,0.8,0.8c0,0.5-0.4,0.8-0.9,0.8c-0.4,0-0.6-0.2-0.7-0.3C38.5,39.6,38.5,39.6,38.6,39.5z"/>
	</g>
</g>
<g id="Headlands_School_x5F_2" display="none">
	<g display="inline">
		<path fill="#FFFFFF" d="M30,33.8c-0.3,0-0.6,0.4-0.6,0.8c0,0.4,0.3,0.8,0.6,0.8c0.3,0,0.6-0.4,0.6-0.8
			C30.6,34.2,30.4,33.8,30,33.8z"/>
		<path fill="#FFFFFF" d="M36.7,21.2l3.3,3l0.2-0.2c0.6-0.4,1.7-1.3,2-1.6c0.2-0.2,0.3-0.3,0.3-0.5c0.2-0.5,0-1-0.3-1.4
			c-0.6-0.6-1.1-1.5-1.4-2.5l-0.1-0.2c-0.3-1-0.4-2-0.3-2.8c0.1-0.5-0.1-1-0.6-1.3c-0.2-0.1-0.4-0.2-0.6-0.2c-0.5-0.1-2-0.1-2.6-0.1
			l-0.3,0l-0.9,4.4C36.3,18.6,36.7,19.8,36.7,21.2z"/>
		<path fill="#FFFFFF" d="M37.3,11.3c0.3,0.2,0.7,0.1,0.9-0.3c0.3-0.3,0.2-0.8,0-1c-0.3-0.2-0.7-0.1-0.9,0.3
			C37.1,10.7,37.1,11.1,37.3,11.3z"/>
		<path fill="#FFFFFF" d="M35.9,24.6l3.1-0.3l-2.3-2.1C36.6,23.1,36.3,23.9,35.9,24.6z"/>
		<path fill="#FFFFFF" d="M17.3,24.9c-0.4,0.1-0.7,0.5-0.6,0.8c0.1,0.3,0.5,0.5,0.9,0.3c0.4-0.1,0.7-0.5,0.6-0.8
			C18.1,24.9,17.7,24.7,17.3,24.9z"/>
		<path fill="#FFFFFF" d="M22.7,11.3c0.3-0.2,0.3-0.6,0-1c-0.3-0.3-0.7-0.5-0.9-0.3c-0.3,0.2-0.3,0.6,0,1S22.5,11.5,22.7,11.3z"/>
		<path fill="#FFFFFF" d="M40.5,28.4c0.1-0.2,0.1-0.4,0-0.6c-0.1-0.5-0.5-2-0.7-2.5L39.8,25l-4.5,0.5c-0.8,1-1.8,1.8-3,2.2l-1.8,4.1
			l0.3,0.2c0.6,0.4,1.7,1.2,2.1,1.4c0.2,0.1,0.4,0.1,0.6,0.1c0.5,0,1-0.3,1.2-0.7c0.4-0.8,1.1-1.5,1.9-2.1l0.2-0.2
			c0.8-0.6,1.8-1,2.6-1.1C39.9,29.2,40.3,28.9,40.5,28.4z"/>
		<path fill="#FFFFFF" d="M30,28.1c-0.4,0-0.9,0-1.3-0.1l1.3,2.8l1.2-2.8C30.9,28,30.5,28.1,30,28.1z"/>
		<path fill="#FFFFFF" d="M24.7,25.5L20.3,25l-0.1,0.3c-0.2,0.7-0.6,2-0.7,2.4c0,0.2,0,0.4,0,0.6c0.2,0.5,0.6,0.9,1.1,0.9
			c0.8,0.1,1.8,0.6,2.6,1.2l0.2,0.2c0.8,0.6,1.5,1.4,1.9,2.1c0.2,0.5,0.7,0.7,1.2,0.7c0.2,0,0.4,0,0.6-0.1c0.5-0.2,1.7-1.1,2.2-1.4
			l0.2-0.2l-1.9-4.1C26.6,27.2,25.5,26.5,24.7,25.5z"/>
		<path fill="#FFFFFF" d="M50.1,15.2l0.2-0.5l-0.5-0.3c-1-0.6-2.1-0.9-3.2-0.9h0c-0.2,0-0.4,0-0.5,0c0.1-0.4,0.2-0.8,0.2-1.1
			c0.1-0.9-0.1-1.8-0.6-2.5c-0.5-0.7-1.3-1.2-2.2-1.3c-1-0.2-2.1-0.7-3.1-1.4l-0.3-0.2c-1-0.7-1.8-1.6-2.3-2.5
			c-0.4-0.8-1.1-1.4-2-1.7c-0.9-0.3-1.8-0.2-2.6,0.2c-0.2,0.1-0.6,0.3-1,0.6c-0.3-1.2-1-2.4-2-3.3L30,0l-0.4,0.4c-1,0.9-1.7,2-2,3.3
			c-0.4-0.2-0.7-0.5-1-0.6c-1.1-0.6-2.5-0.5-3.5,0.3c-0.4,0.3-0.8,0.7-1,1.2c-0.5,0.9-1.3,1.8-2.3,2.5l-0.3,0.2
			c-1,0.7-2.1,1.2-3.1,1.4c-0.5,0.1-1,0.3-1.4,0.6c-1,0.7-1.5,2-1.3,3.2c0,0.3,0.1,0.7,0.3,1.1c-0.2,0-0.3,0-0.5,0
			c-1.1,0-2.2,0.3-3.2,0.9l-0.5,0.3l0.2,0.5c0.5,1.3,1.4,2.2,2.5,2.9c-0.4,0.3-0.7,0.6-0.9,0.7c-0.6,0.6-1,1.5-1,2.4
			c0,0.9,0.3,1.7,1,2.4c0.7,0.7,1.3,1.8,1.7,3l0.1,0.3c0.4,1.2,0.5,2.4,0.4,3.4c-0.1,0.9,0.1,1.8,0.6,2.5c0.5,0.7,1.3,1.2,2.2,1.3
			c0.3,0,0.7,0.1,1.1,0.1c-0.5,1.2-0.6,2.5-0.3,3.8l0.1,0.5l0.5-0.1c1.4-0.1,2.6-0.6,3.5-1.5c0.2,0.4,0.3,0.8,0.4,1
			c0.4,0.8,1.1,1.4,2,1.7c0.9,0.3,1.8,0.2,2.6-0.2c0.9-0.5,2.1-0.7,3.4-0.7l0.4,0c1.3,0,2.4,0.3,3.3,0.7c1.1,0.6,2.5,0.5,3.5-0.3
			c0.4-0.3,0.8-0.7,1-1.2c0.1-0.2,0.3-0.6,0.4-1c1,0.8,2.2,1.4,3.5,1.5l0.5,0.1l0.1-0.5c0.3-1.3,0.2-2.7-0.3-3.8
			c0.4,0,0.8-0.1,1.1-0.1c0.5-0.1,1-0.3,1.4-0.6c1-0.7,1.5-2,1.3-3.2c-0.2-1,0-2.2,0.4-3.4l0.1-0.3c0.4-1.2,1-2.2,1.7-2.9
			c0.6-0.6,1-1.5,1-2.4c0-0.9-0.3-1.7-1-2.4c-0.2-0.2-0.5-0.5-0.9-0.8C48.7,17.5,49.6,16.5,50.1,15.2z M13.5,17.3
			c-0.7-0.4-1.4-0.9-1.9-1.6l2.8,0.9C14.2,16.8,13.9,17,13.5,17.3z M11.8,15.1c0.5-0.2,1.1-0.3,1.6-0.3c0.3,0,0.6,0,0.9,0.1
			c0.1,0.5,0.3,0.9,0.3,1.1L11.8,15.1z M36.9,10c0.4-0.6,1.2-0.8,1.7-0.4c0.5,0.4,0.6,1.2,0.1,1.8c-0.4,0.6-1.2,0.8-1.7,0.4
			C36.5,11.4,36.5,10.6,36.9,10z M30.4,2.1c0.5,0.7,0.8,1.5,0.9,2.3c-0.4,0.3-0.7,0.5-1,0.6L30.4,2.1z M29.7,2.1l0,3
			c-0.2-0.1-0.5-0.4-1-0.7C28.9,3.5,29.2,2.8,29.7,2.1z M21.5,9.6c0.5-0.4,1.3-0.2,1.7,0.4c0.4,0.6,0.4,1.4-0.1,1.8
			c-0.5,0.4-1.3,0.2-1.7-0.4C20.9,10.7,21,9.9,21.5,9.6z M17.8,26.5c-0.7,0.2-1.5-0.1-1.6-0.7c-0.2-0.6,0.2-1.3,0.9-1.5
			c0.7-0.2,1.5,0.1,1.6,0.7C19,25.6,18.5,26.3,17.8,26.5z M19,34.4c0.5,0,0.9,0,1.2,0l-1.7,2.4C18.4,35.9,18.6,35.1,19,34.4z
			 M19,37.2l1.7-2.4c0.1,0.2,0.2,0.6,0.4,1.1C20.5,36.5,19.8,36.9,19,37.2z M30,35.9c-0.6,0-1.1-0.6-1.1-1.4s0.5-1.4,1.1-1.4
			c0.6,0,1.1,0.6,1.1,1.4S30.7,35.9,30,35.9z M37.4,31.3l-0.2,0.2c-0.7,0.5-1.3,1.2-1.6,1.8c-0.4,0.8-1.2,1.3-2.1,1.3
			c-0.4,0-0.7-0.1-1.1-0.3c-0.6-0.3-2.2-1.4-2.2-1.5l-0.1-0.1l0,0l0,0l-0.1,0.1c-0.1,0-1.7,1.2-2.3,1.5c-0.3,0.2-0.7,0.3-1.1,0.3
			c-0.9,0-1.7-0.5-2.1-1.3c-0.3-0.6-0.9-1.3-1.6-1.8l-0.2-0.2c-0.7-0.5-1.5-0.9-2.2-1c-0.6-0.1-1.2-0.4-1.5-0.9
			c-0.4-0.5-0.5-1.1-0.4-1.8c0.1-0.7,0.7-2.6,0.7-2.6l0-0.1l0,0l0,0l-0.1-0.1c0,0-1.6-1.2-2.1-1.7c-0.4-0.4-0.7-1-0.7-1.7
			c0-0.6,0.2-1.2,0.7-1.7c0.5-0.5,0.9-1.2,1.2-2.1l0.1-0.2c0.3-0.8,0.4-1.7,0.3-2.4c-0.1-0.6,0.1-1.2,0.4-1.8
			c0.4-0.5,0.9-0.8,1.5-0.9c0.6-0.1,2.3-0.1,2.7-0.1l0.1,0l0,0l0,0l0-0.1c0,0,0.7-1.9,1-2.5c0.4-0.8,1.2-1.3,2.1-1.3
			c0.4,0,0.7,0.1,1.1,0.3C28.2,8.9,29,9,29.9,9l0.3,0c0.9,0,1.7-0.2,2.3-0.5c0.3-0.2,0.7-0.3,1.1-0.3c0.9,0,1.7,0.5,2.1,1.3
			c0.3,0.6,0.9,2.5,0.9,2.5l0,0.1l0,0l0,0l0.1,0c0.3,0,2.1,0.1,2.7,0.2c0.6,0.1,1.2,0.4,1.5,0.9c0.4,0.5,0.5,1.1,0.4,1.8
			c-0.1,0.7,0,1.5,0.2,2.4l0.1,0.2c0.3,0.9,0.7,1.6,1.2,2.1c0.4,0.4,0.7,1,0.7,1.7c0,0.6-0.2,1.2-0.7,1.7c-0.5,0.5-2.1,1.7-2.1,1.7
			l-0.1,0.1l0,0l0,0l0,0.1c0,0,0.6,1.9,0.7,2.6c0.1,0.6-0.1,1.2-0.4,1.8c-0.4,0.5-0.9,0.8-1.5,0.9C38.9,30.4,38.1,30.7,37.4,31.3z
			 M39,35.8c0.2-0.5,0.3-0.9,0.4-1.1l1.8,2.4C40.3,36.9,39.6,36.5,39,35.8z M39.9,34.4c0.2,0,0.7,0,1.2,0c0.4,0.7,0.6,1.6,0.6,2.5
			L39.9,34.4z M43.9,25.9c-0.2,0.6-0.9,0.9-1.6,0.7c-0.7-0.2-1.1-0.9-0.9-1.5c0.2-0.6,0.9-0.9,1.6-0.7
			C43.7,24.6,44.1,25.3,43.9,25.9z M45.8,14.9c0.3-0.1,0.6-0.1,0.9-0.1h0c0.5,0,1.1,0.1,1.6,0.3L45.5,16
			C45.5,15.7,45.7,15.3,45.8,14.9z M46.5,17.3c-0.4-0.3-0.7-0.6-0.9-0.7l2.9-0.9C48,16.4,47.3,16.9,46.5,17.3z"/>
		<path fill="#FFFFFF" d="M42.8,24.9c-0.4-0.1-0.8,0-0.9,0.3c-0.1,0.3,0.2,0.7,0.6,0.8c0.4,0.1,0.8,0,0.9-0.3
			C43.5,25.4,43.2,25,42.8,24.9z"/>
		<circle fill="#FFFFFF" cx="30" cy="21.4" r="5.6"/>
		<path fill="#FFFFFF" d="M24.2,24.6c-0.4-0.7-0.7-1.5-0.8-2.4l-2.3,2.1L24.2,24.6z"/>
		<path fill="#FFFFFF" d="M30,14.7c0.6,0,1.3,0.1,1.9,0.3l3.9-2.2l-0.1-0.3c-0.2-0.7-0.7-2-0.9-2.4c-0.1-0.2-0.2-0.4-0.4-0.5
			c-0.2-0.2-0.5-0.3-0.8-0.3c-0.2,0-0.4,0.1-0.6,0.1c-0.8,0.4-1.8,0.6-2.8,0.6l-0.3,0c-1,0-2-0.2-2.8-0.6c-0.2-0.1-0.4-0.2-0.6-0.2
			c-0.3,0-0.6,0.1-0.8,0.3c-0.2,0.1-0.3,0.3-0.4,0.5c-0.2,0.5-0.7,1.9-0.9,2.4l-0.1,0.3l3.9,2.2C28.8,14.8,29.4,14.7,30,14.7z"/>
		<path fill="#FFFFFF" d="M35.6,13.8l-2.7,1.5c0.8,0.4,1.5,0.9,2,1.5L35.6,13.8z"/>
		<path fill="#FFFFFF" d="M24.5,13.8l0.6,3c0.6-0.6,1.3-1.1,2-1.5L24.5,13.8z"/>
		<path fill="#FFFFFF" d="M20,24.2l3.3-3c0-1.3,0.5-2.5,1.2-3.5l-0.9-4.4l-0.3,0c-0.7,0-2.1,0-2.5,0.1c-0.2,0-0.4,0.1-0.6,0.2
			c-0.4,0.3-0.6,0.8-0.6,1.3c0.1,0.8,0,1.9-0.3,2.9L19.2,18c-0.3,1-0.8,1.9-1.4,2.5c-0.4,0.4-0.5,0.9-0.3,1.4
			c0.1,0.2,0.2,0.4,0.3,0.5c0.4,0.4,1.6,1.3,2,1.6L20,24.2z"/>
	</g>
</g>
<g id="Smith__x26__Nephew" display="none">
	<g display="inline">
		<g>
			<path fill="#FFFFFF" d="M5.3,33.9c0.5,0,1.1-1.2,1.2-1.6c0.2-0.5,0.3-1,0.3-1.5c0-0.2,0-0.6-0.3-0.6c-0.5,0-1.1,1.2-1.2,1.6
				c-0.2,0.5-0.3,1-0.3,1.5C5,33.5,5,33.9,5.3,33.9z M8.1,33.2c-0.8,0-1.8,0.4-1.8,0.9c0,0.4,0.7,0.4,0.9,0.4C8.1,34.5,9,34,9,33.6
				C9,33.2,8.3,33.2,8.1,33.2z M4,35.3c-1,0-3.4,1.7-3.4,2.4C0.6,38,0.8,38,1,38c1,0,3.4-1.6,3.4-2.4C4.3,35.4,4.1,35.3,4,35.3z
				 M1.5,33c-0.4,0-1.3,0.1-1.3,0.6c0,0.6,1.4,1.1,1.9,1.2c0.3,0.1,0.7,0.1,1,0.1c0.4,0,1.3-0.1,1.3-0.6C4.4,33.7,2.7,33,1.5,33z
				 M5.6,35.7c-0.5,0-0.6,0.5-0.6,0.9c0,1.4,1.2,3.3,2.2,3.3c0.5,0,0.6-0.5,0.6-0.9C7.8,37.6,6.5,35.7,5.6,35.7z M11.3,35.5
				c0-0.3,0.3-0.3,0.5-0.3c0.7,0,0.6,0.5,1.1,0.5c0.3,0,0.5-0.2,0.5-0.5c0-0.1-0.1-0.3-0.2-0.4c-0.3-0.3-0.9-0.5-1.4-0.5
				c-0.8,0-1.7,0.3-1.7,1.3c0,1.4,2.2,1.1,2.2,1.6c0,0.3-0.4,0.3-0.6,0.3c-0.8,0-0.9-0.6-1.3-0.6c-0.3,0-0.5,0.2-0.5,0.5
				c0,0.5,0.7,0.8,1.1,0.9c0.2,0.1,0.4,0.1,0.7,0.1c0.8,0,1.7-0.3,1.7-1.3C13.7,35.6,11.3,36,11.3,35.5z M18.1,34.2
				c-0.3,0-0.8,0.1-1.1,0.5c-0.3-0.3-0.7-0.5-1.1-0.5c-0.3,0-0.6,0.1-0.8,0.4c-0.1-0.2-0.2-0.3-0.5-0.3c-0.3,0-0.6,0.2-0.6,0.6v3
				c0,0.3,0.2,0.6,0.6,0.6c0.3,0,0.6-0.2,0.6-0.6v-2.1c0-0.3,0.2-0.5,0.5-0.5c0.3,0,0.5,0.2,0.5,0.5v2.1c0,0.3,0.2,0.6,0.6,0.6
				c0.3,0,0.5-0.3,0.5-0.6v-2.1c0-0.3,0.2-0.5,0.5-0.5c0.3,0,0.5,0.2,0.5,0.5v2.1c0,0.3,0.2,0.6,0.6,0.6c0.3,0,0.6-0.2,0.6-0.6v-2.1
				C19.5,34.7,18.9,34.2,18.1,34.2z M20.9,32.6c-0.3,0-0.6,0.3-0.6,0.6c0,0.3,0.3,0.6,0.6,0.6c0.4,0,0.6-0.3,0.6-0.7
				C21.5,32.9,21.2,32.6,20.9,32.6z M20.9,34.3h-0.6c-0.3,0-0.5,0.2-0.5,0.5c0,0.3,0.2,0.5,0.5,0.5h0v2.6c0,0.3,0.2,0.6,0.6,0.6
				c0.3,0,0.6-0.2,0.6-0.6v-3C21.4,34.5,21.2,34.3,20.9,34.3z M23.9,34.3h-0.4v-0.8c0-0.3-0.3-0.6-0.6-0.6c-0.3,0-0.6,0.2-0.6,0.6
				v0.8h-0.3c-0.3,0-0.5,0.2-0.5,0.5c0,0.3,0.2,0.5,0.5,0.5h0.2v2.2c0,0.6,0.5,0.9,1,0.9h0.2c0.3,0,0.5-0.2,0.5-0.5
				c0-0.3-0.2-0.5-0.4-0.5c0,0,0,0,0,0v-2.1h0.4c0.3,0,0.5-0.2,0.5-0.5C24.4,34.5,24.2,34.3,23.9,34.3z M26.9,34.2
				c-0.2,0-0.8,0.1-1,0.4h0v-1.5c0-0.3-0.2-0.6-0.6-0.6c-0.3,0-0.6,0.2-0.6,0.6v4.8c0,0.3,0.2,0.6,0.6,0.6c0.3,0,0.6-0.2,0.6-0.6
				v-1.9c0-0.4,0.2-0.8,0.7-0.8c0.4,0,0.7,0.2,0.7,0.8v1.9c0,0.3,0.2,0.6,0.6,0.6c0.3,0,0.6-0.2,0.6-0.6v-2.1
				C28.4,34.8,27.7,34.2,26.9,34.2z M32.8,37c0.1-0.1,0.1-0.2,0.2-0.2c0.2-0.3,0.4-0.5,0.4-0.7c0-0.3-0.2-0.5-0.5-0.5
				c-0.2,0-0.3,0.1-0.5,0.3c-0.1,0.1-0.2,0.2-0.2,0.3l-0.7-0.8c0.4-0.2,0.9-0.7,0.9-1.3c0-0.8-0.8-1.2-1.4-1.2
				c-0.7,0-1.5,0.4-1.5,1.3c0,0.4,0.1,0.6,0.5,1c-0.5,0.3-1.1,0.8-1.1,1.7c0,1.1,0.8,1.6,1.7,1.6c0.4,0,0.9-0.1,1.5-0.7l0.4,0.5
				c0.1,0.1,0.3,0.2,0.4,0.2c0.3,0,0.5-0.2,0.5-0.5c0-0.2-0.1-0.2-0.2-0.4L32.8,37z M30.9,33.7c0.2,0,0.5,0.1,0.5,0.4
				c0,0.2-0.3,0.5-0.5,0.6c-0.1-0.1-0.4-0.4-0.4-0.6C30.5,33.9,30.7,33.7,30.9,33.7z M30.6,37.5c-0.4,0-0.7-0.3-0.7-0.8
				c0-0.4,0.3-0.7,0.6-0.9l1,1.2C31.1,37.3,30.9,37.5,30.6,37.5z M36,34.2c-0.5,0-0.9,0.1-1.1,0.4c-0.1-0.2-0.2-0.4-0.5-0.4
				c-0.3,0-0.6,0.2-0.6,0.6v3c0,0.3,0.2,0.6,0.6,0.6c0.3,0,0.6-0.2,0.6-0.6v-1.9c0-0.4,0.2-0.7,0.7-0.7c0.4,0,0.7,0.2,0.7,0.7v2
				c0,0.3,0.2,0.6,0.6,0.6c0.3,0,0.6-0.2,0.6-0.6v-2.1C37.5,34.8,36.9,34.2,36,34.2z M41.8,36.2c0-0.9-0.8-2-1.9-2c-1.2,0-2,1-2,2.1
				c0,1.2,0.8,2.1,2.1,2.1c0.8,0,1.8-0.4,1.8-0.9c0-0.2-0.2-0.5-0.5-0.5c-0.3,0-0.7,0.4-1.2,0.4c-0.6,0-0.9-0.3-1-0.8h2.3
				C41.7,36.7,41.8,36.6,41.8,36.2z M39,36c0-0.4,0.4-0.8,0.8-0.8c0.5,0,0.8,0.4,0.8,0.8H39z M44.4,34.2c-0.4,0-0.8,0.2-1,0.5
				c-0.1-0.3-0.3-0.5-0.6-0.5c-0.3,0-0.6,0.2-0.6,0.6v4.6c0,0.3,0.2,0.6,0.5,0.6c0.3,0,0.5-0.2,0.5-0.6V38h0c0.2,0.3,0.7,0.5,1,0.5
				c1.1,0,1.8-1,1.8-2.1C46.1,35.3,45.5,34.2,44.4,34.2z M44.2,37.5c-0.6,0-0.9-0.7-0.9-1.2c0-0.5,0.3-1.1,0.9-1.1s0.9,0.7,0.9,1.2
				C45,36.8,44.7,37.5,44.2,37.5z M48.6,34.2c-0.2,0-0.8,0.1-1,0.4h0v-1.5c0-0.3-0.2-0.6-0.6-0.6c-0.3,0-0.6,0.2-0.6,0.6v4.8
				c0,0.3,0.2,0.6,0.6,0.6c0.3,0,0.6-0.2,0.6-0.6v-1.9c0-0.4,0.2-0.8,0.7-0.8c0.4,0,0.7,0.2,0.7,0.8v1.9c0,0.3,0.2,0.6,0.6,0.6
				c0.3,0,0.6-0.2,0.6-0.6v-2.1C50.1,34.8,49.5,34.2,48.6,34.2z M54.5,36.2c0-0.9-0.8-2-1.9-2c-1.2,0-2,1-2,2.1
				c0,1.2,0.8,2.1,2.1,2.1c0.8,0,1.8-0.4,1.8-0.9c0-0.2-0.2-0.5-0.5-0.5c-0.3,0-0.7,0.4-1.2,0.4c-0.6,0-0.9-0.3-1-0.8H54
				C54.3,36.7,54.5,36.6,54.5,36.2z M51.7,36c0-0.4,0.4-0.8,0.8-0.8c0.5,0,0.8,0.4,0.8,0.8H51.7z M59.3,34.3c-0.2,0-0.4,0.1-0.5,0.4
				l-0.4,1.7c0,0-0.1,0.3-0.1,0.3s-0.1-0.3-0.1-0.3l-0.5-1.7c-0.1-0.2-0.3-0.4-0.5-0.4s-0.4,0.2-0.5,0.4l-0.5,1.7
				c0,0-0.1,0.3-0.1,0.3c0,0-0.1-0.3-0.1-0.3l-0.4-1.7c-0.1-0.2-0.3-0.4-0.5-0.4c-0.3,0-0.6,0.2-0.6,0.6c0,0.1,0,0.1,0,0.2l1,3
				c0.1,0.2,0.3,0.3,0.5,0.3s0.4-0.1,0.5-0.4l0.5-1.8c0-0.1,0.1-0.3,0.1-0.3s0.1,0.3,0.1,0.3l0.5,1.8c0.1,0.2,0.2,0.4,0.5,0.4
				c0.2,0,0.4-0.1,0.5-0.3l1-3c0-0.1,0-0.1,0-0.2C59.8,34.5,59.6,34.3,59.3,34.3z"/>
		</g>
	</g>
</g>
<g id="Smith__x26__Nephew_x5F_2" display="none">
	<g display="inline">
		<g>
			<g>
				<path fill="#FFFFFF" d="M17.2,11.6c-1.5,0-5.4,0.3-5.4,2.3c0,2.5,5.7,4.3,7.7,4.7c1.4,0.3,2.8,0.5,4.2,0.5
					c1.5,0,5.3-0.3,5.3-2.3C29.1,14.2,22.4,11.6,17.2,11.6z M27.5,21.2c-4.3,0-13.8,6.7-13.8,9.8c0,0.8,0.8,1.1,1.5,1.1
					c4.1,0,13.8-6.7,13.8-9.9C29,21.4,28.2,21.2,27.5,21.2z M32.8,15.3c2,0,4.3-5,5-6.7c0.7-1.9,1.3-4.1,1.3-6.1
					c0-0.8-0.2-2.6-1.3-2.6c-2,0-4.3,5-5,6.7c-0.7,1.9-1.3,4.1-1.3,6.1C31.5,13.6,31.6,15.3,32.8,15.3z M34.2,22.6
					c-2,0-2.5,2.2-2.5,3.9c0,5.6,5,13.5,8.8,13.5c1.9,0,2.5-2,2.5-3.9C43,30.4,38,22.6,34.2,22.6z M44.3,12.2
					c-3.1,0-7.4,1.6-7.4,3.6c0,1.5,2.7,1.8,3.8,1.8c3.5,0,7.4-1.8,7.4-3.6C48.1,12.5,45.4,12.2,44.3,12.2z"/>
			</g>
		</g>
	</g>
</g>
<g id="SJP_Law" display="none">
	<path display="inline" fill="#FFFFFF" d="M22.8,36.7c-0.7,0-1.6-0.2-2.8-0.7l0,0l-0.1-2.6h0.2l0,0c0.3,0.7,0.7,1.3,1.1,1.8
		c0.6,0.8,1.3,1.1,1.9,1.1c0.3,0,0.5-0.1,0.7-0.3c0.1-0.1,0.2-0.3,0.2-0.6c0-0.3-0.1-0.5-0.2-0.6c-0.2-0.2-0.5-0.3-0.9-0.5l-0.6-0.2
		c-0.7-0.3-1.3-0.5-1.7-0.8c-0.4-0.3-0.6-0.8-0.6-1.3c0-0.6,0.3-1.2,0.9-1.6c0.5-0.4,1.1-0.5,1.9-0.5c0.6,0,1.4,0.1,2.2,0.4l0,0
		l0.1,2.2h-0.2l0,0c-0.2-0.5-0.5-0.9-0.8-1.3c-0.5-0.6-1-0.9-1.5-0.9c-0.2,0-0.4,0.1-0.5,0.2c-0.2,0.2-0.2,0.3-0.2,0.6
		c0,0.5,0.4,0.8,1.1,1.1l0.9,0.3c0.6,0.2,1.1,0.4,1.4,0.7c0.4,0.3,0.6,0.7,0.6,1.3c0,0.4-0.1,0.7-0.2,1c-0.2,0.3-0.4,0.6-0.7,0.8
		C24.2,36.5,23.6,36.7,22.8,36.7z"/>
	<path display="inline" fill="#FFFFFF" d="M29.6,39v-0.3l0.1,0c0.4,0,0.7-0.1,0.9-0.3c0.1-0.1,0.2-0.4,0.2-0.7c0-0.1,0-0.4,0-0.9v-4
		c0-0.4,0-0.8-0.1-0.9c-0.1-0.4-0.4-0.6-0.9-0.7l-0.1,0l0-0.3l0.1,0c0.5-0.1,1-0.2,1.7-0.4c0.6-0.2,1.2-0.4,1.6-0.5l0.1,0v0.8
		c0.6-0.5,1.2-0.7,1.8-0.7c0.8,0,1.4,0.4,1.9,1.1c0.3,0.5,0.5,1.2,0.5,1.9c0,1.1-0.3,2-0.9,2.7c-0.6,0.7-1.3,1-2.1,1
		c-0.4,0-0.8-0.1-1.2-0.4v1c0,0.4,0,0.7,0.1,0.9c0,0.2,0.2,0.4,0.4,0.4c0.1,0,0.3,0.1,0.6,0.1l0.1,0V39H29.6z M33.1,35.9
		c0.2,0.1,0.3,0.2,0.5,0.2c0.4,0,0.7-0.2,0.9-0.7c0.2-0.5,0.3-1.2,0.3-2c0-0.8-0.1-1.5-0.3-2c-0.1-0.2-0.2-0.4-0.4-0.5
		c-0.1,0-0.2-0.1-0.3-0.1c-0.2,0-0.4,0.1-0.7,0.3V35.9z"/>
	<path display="inline" fill="#FFFFFF" d="M36.9,36.5v-0.3l0.1,0c0.4,0,0.6-0.1,0.7-0.2c0.1-0.1,0.1-0.3,0.1-0.5c0-0.1,0-0.3,0-0.6
		v-5.1c0-0.4,0-0.8-0.1-0.9c-0.1-0.4-0.4-0.6-0.9-0.7l-0.1,0l0-0.3l0.1,0c1.3-0.3,2.4-0.6,3.3-0.9l0.1,0v7.9c0,0.4,0,0.7,0,0.9
		c0,0.2,0.1,0.4,0.3,0.4c0.1,0,0.3,0.1,0.5,0.1l0.1,0v0.3H36.9z"/>
	<path display="inline" fill="#FFFFFF" d="M46.4,36.7c-0.7,0-1.1-0.4-1.3-1.1c-0.2,0.3-0.4,0.5-0.7,0.7c-0.4,0.3-1,0.4-1.5,0.4
		c-0.6,0-1.1-0.2-1.4-0.5c-0.3-0.3-0.4-0.6-0.4-0.9c0-0.4,0.2-0.8,0.6-1.1c0.5-0.4,1.7-0.9,3.4-1.4v-0.6c0-0.9-0.1-1.3-0.2-1.4
		c-0.1-0.2-0.3-0.3-0.5-0.3c-0.4,0-0.6,0.1-0.8,0.5c-0.1,0.2-0.2,0.5-0.2,1.1c-0.1,0.4-0.2,0.7-0.4,0.9c-0.3,0.3-0.6,0.5-1,0.5
		c-0.3,0-0.5-0.1-0.7-0.3c-0.2-0.2-0.3-0.4-0.3-0.7c0-0.5,0.4-1,1.1-1.4c0.4-0.2,0.9-0.5,1.5-0.6c0.7-0.2,1.4-0.3,2.1-0.3
		c0.5,0,0.9,0.1,1.1,0.4c0.2,0.2,0.3,0.4,0.4,0.6c0.1,0.2,0.1,0.5,0.1,0.9v2.9c0,0.5,0,0.7,0.1,0.8c0.1,0.1,0.2,0.2,0.4,0.2
		c0.1,0,0.3-0.1,0.5-0.2l0.1,0l0.2,0.2l-0.1,0c-0.3,0.2-0.5,0.4-0.7,0.6C47.3,36.5,46.8,36.7,46.4,36.7z M45.1,33
		c-0.3,0.1-0.6,0.2-0.8,0.4c-0.4,0.3-0.6,0.7-0.6,1.3c0,0.7,0.2,1.1,0.7,1.1c0.2,0,0.4-0.1,0.5-0.2c0.1-0.1,0.2-0.4,0.2-0.6V33z"/>
	<path display="inline" fill="#FFFFFF" d="M53.6,32.4l-2.2,4.6l-2.5-5.1c-0.3-0.5-0.5-0.9-0.6-1c-0.2-0.2-0.3-0.4-0.5-0.4
		c-0.1,0-0.2,0-0.3-0.1l-0.1,0v-0.3h4v0.3l-0.1,0c-0.2,0-0.3,0.1-0.3,0.3c0,0.2,0.1,0.4,0.3,0.8l1.1,2.4l0.9-1.9
		c-0.3-0.6-0.5-1-0.6-1.2c-0.1-0.2-0.2-0.3-0.4-0.3c-0.1,0-0.2-0.1-0.3-0.1l-0.1,0v-0.3h4.1v0.3l-0.1,0c-0.3,0-0.5,0.2-0.5,0.5
		c0,0.1,0.1,0.4,0.2,0.6c0.1,0.1,0.2,0.4,0.4,0.8l0.7,1.6c0.2-0.4,0.3-0.7,0.4-0.9c0.2-0.6,0.4-1.1,0.4-1.6c0-0.3-0.1-0.6-0.2-0.7
		c-0.1-0.1-0.2-0.2-0.4-0.3l0,0v-0.2h3v0.2l-0.1,0c-0.8,0.2-1.6,1.2-2.4,2.9l-1.7,3.7L53.6,32.4z"/>
	<path display="inline" fill="#FFFFFF" d="M26.3,39c-0.6,0-1.1-0.1-1.5-0.3c-0.3-0.1-0.5-0.3-0.6-0.5c-0.1-0.2-0.2-0.4-0.2-0.7
		c0-0.3,0.1-0.5,0.3-0.7c0.2-0.2,0.5-0.3,0.8-0.3c0.3,0,0.6,0.1,0.8,0.4c0.2,0.2,0.3,0.5,0.3,0.7c0,0.1,0,0.2,0,0.3
		c0,0.1,0,0.2,0,0.2c0,0.2,0,0.3,0.1,0.4c0.1,0.1,0.2,0.1,0.4,0.1c0.1,0,0.2,0,0.3-0.1c0.1,0,0.1-0.1,0.2-0.2
		c0.1-0.1,0.1-0.4,0.1-0.9v-4.7c0-0.4,0-0.8-0.1-0.9c-0.1-0.4-0.4-0.6-0.9-0.7l-0.1,0l0-0.3l0.1,0c0.4-0.1,1-0.2,1.7-0.4
		c0.6-0.2,1.2-0.4,1.6-0.5l0.1,0v6c0,0.8-0.1,1.3-0.3,1.7c-0.3,0.4-0.7,0.8-1.2,1C27.4,38.9,26.9,39,26.3,39z M28.3,29.1
		c0.6,0,1.1-0.5,1.1-1.1c0-0.6-0.5-1.1-1.1-1.1c-0.6,0-1.1,0.5-1.1,1.1C27.2,28.6,27.7,29.1,28.3,29.1z"/>
	<path display="inline" fill="#FFFFFF" d="M14.3,31.8l2.7-1.5v-3.4l-2.8,1.6v-3.2l-2.8,1.6v-3.2l-2.9,1.7l-2.9-1.7v3.2l-2.8-1.6v3.2
		l-2.8-1.6v3.4l2.7,1.5l-2.7,1.5v3.4l2.8-1.6v3.2l2.8-1.6V40l2.9-1.7l2.9,1.7v-3.2l2.8,1.6l0-3.2l2.8,1.6v-3.4L14.3,31.8z
		 M16.5,27.6V30l-2.7,1.6l-2.1-1.2L16.5,27.6z M13.8,26v2.7l-5.2,3l-2.4-1.4L13.8,26z M11,24.4v2.7l-2.4,1.4l-2.4-1.4L11,24.4z
		 M6.2,24.4l2,1.2l-2,1.2V24.4z M3.4,26l4.8,2.8l-2.4,1.4l-2.4-1.4V26z M0.6,30v-2.4l7.3,4.2L5.8,33L0.6,30z M0.6,36v-2.4L3.3,32
		l2.1,1.2L0.6,36z M3.4,37.6v-2.7l5.2-3l2.4,1.4L3.4,37.6z M6.2,39.2v-2.7l2.4-1.4l2.4,1.4L6.2,39.2z M11,39.2L9,38l2-1.2L11,39.2z
		 M13.8,37.6L9,34.8l2.4-1.4l2.4,1.4L13.8,37.6z M16.6,36l-7.3-4.2l2.1-1.2l5.2,3V36z"/>
</g>
<g id="SJP_Law_x5F_2" display="none">
	<g display="inline">
		<path fill="#FFFFFF" d="M44,20l6.5-3.8V7.8l-6.8,3.9V3.9L37,7.8V0l-7,4.1l-7-4.1v7.8l-6.8-3.9v7.8L9.4,7.8v8.4l6.5,3.8l-6.5,3.8
			v8.4l6.8-3.9v7.8l6.8-3.9V40l7-4.1l7,4.1v-7.8l6.8,3.9l0-7.8l6.8,3.9v-8.4L44,20z M49.4,9.7v5.9l-6.5,3.9l-5-2.9L49.4,9.7z
			 M42.7,5.8v6.7L30,19.9l-5.8-3.3L42.7,5.8z M35.9,1.9v6.7L30,12l-5.8-3.3L35.9,1.9z M24,1.9l4.9,2.9L24,7.6V1.9z M17.3,5.8
			l11.7,6.8L23.2,16l-5.9-3.4V5.8z M10.5,15.6V9.8L28.2,20l-5.1,2.9L10.5,15.6z M10.5,30.3v-5.8l6.7-3.8l5.1,2.9L10.5,30.3z
			 M17.3,34.2v-6.7L30,20.1l5.8,3.3L17.3,34.2z M24,38.1v-6.7L30,28l5.8,3.3L24,38.1z M35.9,38.1l-4.9-2.9l4.9-2.9L35.9,38.1z
			 M42.7,34.2l-11.7-6.8l5.8-3.3l5.9,3.4L42.7,34.2z M49.4,30.3L31.6,20l5.1-2.9l12.7,7.3V30.3z"/>
	</g>
</g>
<g id="MAC" display="none">
	<g display="inline">
		<path fill="#FFFFFF" d="M7,39.9V33H0.1v-6.9H7v-6.8h6.9v6.8h6.8V33h-6.8v6.8H7z M13.3,39.3l-2.5-2.5l-2.5,2.5H13.3z M7.5,39.2
			l2.8-2.8l-2.8-2.8V39.2z M13.4,38.6v-5.7l-2.9-2.9l-2.9,2.9L13.4,38.6z M19.5,32.5l-5.8-5.8l-2.9,2.9l2.9,2.9H19.5z M6.5,32.5
			l-2.8-2.8l-2.8,2.8H6.5z M7.2,32.4l2.9-2.9l-2.9-2.9H1.4L7.2,32.4z M20.2,32.4v-5l-2.5,2.5L20.2,32.4z M0.7,31.8l2.5-2.5l-2.5-2.5
			V31.8z M17.3,29.5l2.8-2.8h-5.7L17.3,29.5z M10.5,29.2l2.9-2.9l-5.8-5.8v5.7L10.5,29.2z M13.4,25.6v-5.7l-2.8,2.8L13.4,25.6z
			 M10.1,22.3l2.5-2.5h-5L10.1,22.3z"/>
		<path fill="#FFFFFF" d="M33.7,25c0,0.3-0.1,0.4-0.3,0.4h-0.2c-0.3,0-0.4-0.1-0.4-0.4v-4.6l-1.8,4.7c-0.1,0.2-0.2,0.2-0.4,0.2h-0.3
			c-0.2,0-0.3,0-0.4-0.3l-1.8-4.7V25c0,0.3-0.1,0.4-0.3,0.4h-0.2c-0.3,0-0.4-0.1-0.4-0.4v-5h-0.1c-0.3-0.1-0.4-0.3-0.4-0.6
			c0-0.2,0.1-0.2,0.3-0.2h1.1c0.4,0,0.6,0.1,0.8,0.8l1.5,4.1L32,20c0.2-0.6,0.4-0.8,0.9-0.8h0.4c0.4,0,0.4,0.1,0.4,0.4V25z"/>
		<path fill="#FFFFFF" d="M35.3,23.8c0.1,0.6,0.6,0.8,1.4,0.8c0.6,0,1-0.1,1.4-0.3c0.2-0.1,0.2-0.1,0.2,0.1c0,0.1,0,0.6-0.5,0.8
			c-0.3,0.1-0.7,0.2-1.2,0.2c-1.3,0-2.2-0.6-2.2-2c0-1.4,0.7-2.2,2-2.2c1.3,0,1.9,0.9,1.9,1.9c0,0.3-0.1,0.6-0.5,0.6H35.3z M35.4,23
			h2.1c0-0.5-0.3-0.9-1-0.9C35.8,22.1,35.5,22.5,35.4,23z"/>
		<path fill="#FFFFFF" d="M43,19.9v4.6c0,0.3,0.1,0.4,0.3,0.4c0.1,0,0.2,0,0.2,0.1c0,0.3-0.2,0.5-0.6,0.5c-0.4,0-0.6-0.2-0.7-0.5
			c-0.3,0.3-0.7,0.5-1.3,0.5c-1.2,0-1.9-0.8-1.9-2.1c0-1.2,0.7-2.1,1.9-2.1c0.6,0,1,0.2,1.3,0.5v-2c-0.3,0-0.5-0.3-0.5-0.6
			c0-0.2,0.1-0.2,0.3-0.2h0.4C42.8,19.1,43,19.3,43,19.9z M41,22.2c-0.8,0-1.1,0.6-1.1,1.2c0,0.6,0.4,1.2,1.1,1.2
			c0.8,0,1.2-0.6,1.2-1.2C42.2,22.8,41.8,22.2,41,22.2z"/>
		<path fill="#FFFFFF" d="M44.6,19.3c0.3,0,0.5,0.2,0.5,0.5c0,0.3-0.2,0.5-0.5,0.5s-0.5-0.2-0.5-0.5C44.1,19.5,44.3,19.3,44.6,19.3z
			 M45,22.1v2.2c0,0.4,0.1,0.5,0.3,0.5c0.1,0,0.2,0,0.2,0.1c0,0.3-0.2,0.5-0.6,0.5c-0.5,0-0.7-0.3-0.7-0.8v-2.9c0-0.3,0-0.3,0.2-0.3
			C44.8,21.4,45,21.6,45,22.1z"/>
		<path fill="#FFFFFF" d="M45.9,23.4c0-1.3,0.7-2.1,2.1-2.1c0.7,0,1.1,0.2,1.2,0.5c0.1,0.1,0.1,0.2,0.1,0.3c0,0.2-0.1,0.3-0.3,0.2
			c-0.2-0.1-0.5-0.2-0.9-0.2c-0.9,0-1.3,0.5-1.3,1.2c0,0.7,0.3,1.2,1.3,1.2c0.3,0,0.7-0.1,0.9-0.1c0.2-0.1,0.3-0.2,0.3,0.1
			c0,0.1,0,0.5-0.4,0.7c-0.3,0.1-0.6,0.2-1,0.2C46.5,25.5,45.9,24.6,45.9,23.4z"/>
		<path fill="#FFFFFF" d="M50.3,21.4h1.1c1.4,0,1.9,0.6,1.9,1.7v1.3c0,0.4,0.1,0.5,0.3,0.5c0.1,0,0.2,0,0.2,0.1
			c0,0.3-0.2,0.5-0.6,0.5c-0.3,0-0.5-0.1-0.6-0.4c-0.2,0.2-0.6,0.4-1.3,0.4c-0.9,0-1.4-0.5-1.4-1.2c0-0.8,0.5-1.2,1.6-1.2
			c0.4,0,0.7,0,1.1,0.1c0-0.8-0.4-0.9-1-0.9h-0.7c-0.5,0-0.7-0.3-0.7-0.7C50.1,21.4,50.1,21.4,50.3,21.4z M51.6,23.8
			c-0.6,0-0.9,0.1-0.9,0.4c0,0.3,0.3,0.5,0.7,0.5c0.5,0,0.8-0.1,1-0.3v-0.5C52.2,23.8,51.9,23.8,51.6,23.8z"/>
		<path fill="#FFFFFF" d="M54.3,19.1h0.4c0.5,0,0.6,0.3,0.6,0.8v4.6c0,0.3,0.1,0.4,0.3,0.4c0.1,0,0.2,0,0.2,0.1
			c0,0.3-0.2,0.5-0.6,0.5c-0.4,0-0.7-0.3-0.7-0.8v-4.8c-0.3-0.1-0.4-0.3-0.4-0.6C54,19.1,54.1,19.1,54.3,19.1z"/>
		<path fill="#FFFFFF" d="M28.4,26.5h1.1c0.3,0,0.3,0.1,0.4,0.3l2.2,5.5c0.1,0.2,0,0.3-0.2,0.3h-0.4c-0.3,0-0.3-0.1-0.4-0.3
			l-0.4-1.1H28l-0.4,1.1c-0.1,0.3-0.2,0.3-0.4,0.3h-0.4c-0.2,0-0.3-0.1-0.2-0.3l2-5.1h-0.1c-0.3-0.1-0.4-0.3-0.4-0.6
			C28.1,26.5,28.2,26.5,28.4,26.5z M28.3,30.3h2l-1-2.5L28.3,30.3z"/>
		<path fill="#FFFFFF" d="M32.4,30.7c0-1.3,0.7-2.1,2.1-2.1c0.7,0,1.1,0.2,1.2,0.5c0.1,0.1,0.1,0.2,0.1,0.3c0,0.2-0.1,0.3-0.3,0.2
			c-0.2-0.1-0.5-0.2-0.9-0.2c-0.9,0-1.3,0.5-1.3,1.2c0,0.7,0.3,1.2,1.3,1.2c0.3,0,0.7-0.1,0.9-0.1c0.2-0.1,0.3-0.2,0.3,0.1
			c0,0.1,0,0.5-0.4,0.7c-0.3,0.1-0.6,0.2-1,0.2C33,32.7,32.4,31.9,32.4,30.7z"/>
		<path fill="#FFFFFF" d="M36.3,30.7c0-1.3,0.7-2.1,2.1-2.1c0.7,0,1.1,0.2,1.2,0.5c0.1,0.1,0.1,0.2,0.1,0.3c0,0.2-0.1,0.3-0.3,0.2
			c-0.2-0.1-0.5-0.2-0.9-0.2c-0.9,0-1.3,0.5-1.3,1.2c0,0.7,0.3,1.2,1.3,1.2c0.3,0,0.7-0.1,0.9-0.1c0.2-0.1,0.3-0.2,0.3,0.1
			c0,0.1,0,0.5-0.4,0.7c-0.3,0.1-0.6,0.2-1,0.2C37,32.7,36.3,31.9,36.3,30.7z"/>
		<path fill="#FFFFFF" d="M41,26.5c0.3,0,0.5,0.2,0.5,0.5c0,0.3-0.2,0.5-0.5,0.5s-0.5-0.2-0.5-0.5C40.5,26.7,40.7,26.5,41,26.5z
			 M41.4,29.4v2.2c0,0.4,0.1,0.5,0.3,0.5c0.1,0,0.2,0,0.2,0.1c0,0.3-0.2,0.5-0.6,0.5c-0.5,0-0.7-0.3-0.7-0.8V29c0-0.3,0-0.3,0.2-0.3
			C41.2,28.6,41.4,28.9,41.4,29.4z"/>
		<path fill="#FFFFFF" d="M46.4,27.1v4.6c0,0.3,0.1,0.4,0.3,0.4c0.1,0,0.2,0,0.2,0.1c0,0.3-0.2,0.5-0.6,0.5c-0.4,0-0.6-0.2-0.7-0.5
			c-0.3,0.3-0.7,0.5-1.3,0.5c-1.2,0-1.9-0.8-1.9-2.1c0-1.2,0.7-2.1,1.9-2.1c0.6,0,1,0.2,1.3,0.5v-2c-0.3,0-0.5-0.3-0.5-0.6
			c0-0.2,0.1-0.2,0.3-0.2h0.4C46.2,26.3,46.4,26.6,46.4,27.1z M44.4,29.5c-0.8,0-1.1,0.6-1.1,1.2c0,0.6,0.4,1.2,1.1,1.2
			c0.8,0,1.2-0.6,1.2-1.2C45.6,30,45.2,29.5,44.4,29.5z"/>
		<path fill="#FFFFFF" d="M48.3,31c0.1,0.6,0.6,0.8,1.4,0.8c0.6,0,1-0.1,1.4-0.3c0.2-0.1,0.2-0.1,0.2,0.1c0,0.1,0,0.6-0.5,0.8
			c-0.3,0.1-0.7,0.2-1.2,0.2c-1.3,0-2.2-0.6-2.2-2c0-1.4,0.7-2.2,2-2.2c1.3,0,1.9,0.9,1.9,1.9c0,0.3-0.1,0.6-0.5,0.6H48.3z
			 M48.3,30.3h2.1c0-0.5-0.3-0.9-1-0.9C48.8,29.4,48.4,29.7,48.3,30.3z"/>
		<path fill="#FFFFFF" d="M53.1,29.1c0.2-0.3,0.6-0.5,1.2-0.5c1,0,1.5,0.6,1.5,1.7v1.3c0,0.4,0.1,0.5,0.3,0.5c0.1,0,0.2,0,0.2,0.1
			c0,0.3-0.2,0.5-0.6,0.5c-0.4,0-0.7-0.3-0.7-0.8v-1.5c0-0.5-0.2-0.9-0.8-0.9c-0.6,0-0.9,0.3-0.9,0.9v2c0,0.3-0.1,0.4-0.4,0.4h-0.2
			c-0.3,0-0.4-0.1-0.4-0.4v-2.8c-0.3,0-0.5-0.3-0.5-0.6c0-0.2,0.1-0.2,0.3-0.2h0.4C52.8,28.6,53,28.8,53.1,29.1z"/>
		<path fill="#FFFFFF" d="M57.6,27.8v0.8h0.9c0.2,0,0.3,0,0.3,0.2c0,0.3-0.3,0.7-0.9,0.7h-0.3v1.6c0,0.7,0.3,0.8,0.5,0.8
			c0.2,0,0.4,0,0.6-0.1c0.1,0,0.2,0,0.2,0.2c0,0.1,0,0.3-0.1,0.4c-0.1,0.2-0.5,0.4-1,0.4c-0.9,0-1.1-0.6-1.1-1.3v-2.6
			c0-1,0.3-1.4,0.7-1.4C57.6,27.5,57.6,27.5,57.6,27.8z"/>
		<path fill="#FFFFFF" d="M29.9,33.6c0.8,0,1.4,0.2,1.7,0.6c0.1,0.2,0.2,0.4,0.2,0.6c0,0.2-0.1,0.3-0.3,0.1
			c-0.3-0.2-0.8-0.4-1.6-0.4c-1.5,0-2.2,0.9-2.2,2.4c0,1.4,0.6,2.3,2.2,2.3c0.7,0,1.2-0.2,1.7-0.4c0.2-0.1,0.2,0,0.2,0.1
			c0,0.1,0,0.3-0.1,0.4c-0.2,0.5-0.9,0.7-1.9,0.7c-1.8,0-3.1-0.8-3.1-3.1C26.8,34.6,28,33.6,29.9,33.6z"/>
		<path fill="#FFFFFF" d="M32.4,33.6h0.4c0.5,0,0.6,0.3,0.6,0.8v4.6c0,0.3,0.1,0.4,0.3,0.4c0.1,0,0.2,0,0.2,0.1
			c0,0.3-0.2,0.5-0.6,0.5c-0.4,0-0.7-0.3-0.7-0.8v-4.8c-0.3-0.1-0.4-0.3-0.4-0.6C32.1,33.6,32.2,33.6,32.4,33.6z"/>
		<path fill="#FFFFFF" d="M34.8,35.9H36c1.4,0,1.9,0.6,1.9,1.7v1.3c0,0.4,0.1,0.5,0.3,0.5c0.1,0,0.2,0,0.2,0.1
			c0,0.3-0.2,0.5-0.6,0.5c-0.3,0-0.5-0.1-0.6-0.4c-0.2,0.2-0.6,0.4-1.3,0.4c-0.9,0-1.4-0.5-1.4-1.2c0-0.8,0.5-1.2,1.6-1.2
			c0.4,0,0.7,0,1.1,0.1c0-0.8-0.4-0.9-1-0.9h-0.7c-0.5,0-0.7-0.3-0.7-0.7C34.6,35.9,34.6,35.9,34.8,35.9z M36.1,38.3
			c-0.6,0-0.9,0.1-0.9,0.4c0,0.3,0.3,0.5,0.7,0.5c0.5,0,0.8-0.1,1-0.3v-0.5C36.7,38.3,36.4,38.3,36.1,38.3z"/>
		<path fill="#FFFFFF" d="M39.3,33.8c0.3,0,0.5,0.2,0.5,0.5c0,0.3-0.2,0.5-0.5,0.5s-0.5-0.2-0.5-0.5C38.8,34,39,33.8,39.3,33.8z
			 M39.7,36.6v2.2c0,0.4,0.1,0.5,0.3,0.5c0.1,0,0.2,0,0.2,0.1c0,0.3-0.2,0.5-0.6,0.5c-0.5,0-0.7-0.3-0.7-0.8v-2.9
			c0-0.3,0-0.3,0.2-0.3C39.5,35.9,39.7,36.1,39.7,36.6z"/>
		<path fill="#FFFFFF" d="M40.7,35.9h0.4c0.4,0,0.6,0.1,0.7,0.5c0.2-0.3,0.6-0.5,1.2-0.5c0.6,0,0.9,0.2,1.1,0.7
			c0.2-0.4,0.7-0.7,1.3-0.7c1,0,1.4,0.6,1.4,1.6v1.4c0,0.4,0.1,0.5,0.3,0.5c0.1,0,0.2,0,0.2,0.1c0,0.3-0.2,0.5-0.6,0.5
			c-0.5,0-0.7-0.3-0.7-0.8v-1.5c0-0.6-0.2-1-0.7-1c-0.5,0-0.8,0.4-0.9,0.8v2c0,0.3-0.1,0.4-0.4,0.4h-0.2c-0.3,0-0.4-0.1-0.4-0.4v-2
			c0-0.5-0.2-0.9-0.7-0.9c-0.6,0-0.8,0.4-0.9,0.8v2c0,0.3-0.1,0.4-0.4,0.4h-0.2c-0.3,0-0.4-0.1-0.4-0.4v-2.8c-0.3,0-0.5-0.3-0.5-0.6
			C40.4,35.9,40.4,35.9,40.7,35.9z"/>
		<path fill="#FFFFFF" d="M47.7,33.6h0.4c0.5,0,0.6,0.3,0.6,0.8v4.6c0,0.3,0.1,0.4,0.3,0.4c0.1,0,0.2,0,0.2,0.1
			c0,0.3-0.2,0.5-0.6,0.5c-0.4,0-0.7-0.3-0.7-0.8v-4.8c-0.3-0.1-0.4-0.3-0.4-0.6C47.4,33.6,47.5,33.6,47.7,33.6z"/>
		<path fill="#FFFFFF" d="M50.2,33.8c0.3,0,0.5,0.2,0.5,0.5c0,0.3-0.2,0.5-0.5,0.5s-0.5-0.2-0.5-0.5C49.7,34,49.9,33.8,50.2,33.8z
			 M50.6,36.6v2.2c0,0.4,0.1,0.5,0.3,0.5c0.1,0,0.2,0,0.2,0.1c0,0.3-0.2,0.5-0.6,0.5c-0.5,0-0.7-0.3-0.7-0.8v-2.9
			c0-0.3,0-0.3,0.2-0.3C50.4,35.9,50.6,36.1,50.6,36.6z"/>
		<path fill="#FFFFFF" d="M52.6,36.3c0.2-0.3,0.6-0.5,1.2-0.5c1,0,1.5,0.6,1.5,1.7v1.3c0,0.4,0.1,0.5,0.3,0.5c0.1,0,0.2,0,0.2,0.1
			c0,0.3-0.2,0.5-0.6,0.5c-0.4,0-0.7-0.3-0.7-0.8v-1.5c0-0.5-0.2-0.9-0.8-0.9c-0.6,0-0.9,0.3-0.9,0.9v2c0,0.3-0.1,0.4-0.4,0.4h-0.2
			c-0.3,0-0.4-0.1-0.4-0.4v-2.8c-0.3,0-0.5-0.3-0.5-0.6c0-0.2,0.1-0.2,0.3-0.2h0.4C52.3,35.9,52.6,36,52.6,36.3z"/>
		<path fill="#FFFFFF" d="M57,38.3c0.1,0.6,0.6,0.8,1.4,0.8c0.6,0,1-0.1,1.4-0.3c0.2-0.1,0.2-0.1,0.2,0.1c0,0.1,0,0.6-0.5,0.8
			c-0.3,0.1-0.7,0.2-1.2,0.2C57,40,56,39.4,56,38c0-1.4,0.7-2.2,2-2.2c1.3,0,1.9,0.9,1.9,1.9c0,0.3-0.1,0.6-0.5,0.6H57z M57,37.5
			h2.1c0-0.5-0.3-0.9-1-0.9C57.5,36.6,57.1,37,57,37.5z"/>
	</g>
</g>
<g id="MAC_x5F_2" display="none">
	<g display="inline">
		<path fill="#FFFFFF" d="M23.3,39.9V26.7H10.1V13.2h13.2V0h13.4v13.2H50v13.4H36.8v13.2H23.3z M35.5,38.8l-4.9-4.9l-4.9,4.9H35.5z
			 M24.4,38.7l5.5-5.5l-5.5-5.5V38.7z M35.7,37.4V26.3l-5.6-5.6l-5.5,5.5L35.7,37.4z M47.5,25.6L36.3,14.4L30.8,20l5.6,5.6H47.5z
			 M22.3,25.6l-5.5-5.5l-5.5,5.5H22.3z M23.8,25.5l5.5-5.5l-5.6-5.6H12.6L23.8,25.5z M48.9,25.4v-9.8L44,20.6L48.9,25.4z M11.2,24.2
			l4.9-4.9l-4.9-4.9V24.2z M43.3,19.8l5.5-5.5h-11L43.3,19.8z M30.1,19.2l5.5-5.5L24.4,2.5v11.1L30.1,19.2z M35.7,12.2v-11l-5.5,5.5
			L35.7,12.2z M29.4,6l4.9-4.9h-9.8L29.4,6z"/>
	</g>
</g>
<g id="Swift" display="none">
	<g display="inline">
		<g>
			<path fill="#FFFFFF" d="M41.4,0H18.7c-2.1,0-3.9,1.7-3.9,3.9v25.4h30.5V3.9C45.3,1.7,43.6,0,41.4,0z M41.9,13.9
				c-1.3-0.7-3.1,0-4,0.7c1,0.9,1.6,2.4,0.6,3.5c-0.7,0.8-1.4,1.5-2.3,2.1c-2.8,1.8-5.4,3.6-8.6,4.9c-0.9,0.4-0.4-0.1-0.5,0
				c2.5-1.9,4.2-3.9,5.3-6.6c0.2-0.5,0.5-1.2,0.2-2c-0.4-1-1.6-1.6-2.8-1.6c-3.6,0-7,1.3-10.5,1.6c-0.9-0.1,0.1-0.4,0-0.3
				c1.7-0.5,3.9-1.1,6.1-1.9c0.5-0.3,0-0.3,0.1-0.4c-2.1-0.6-4.6-0.7-6.7-1c-1.6-0.3,0.8-0.5,0.8-0.4c3.6,0.1,5.8,0.5,9.8,0.1
				c1-0.1,1.7-0.4,2.3-1.2c0.8-1,0.3-2.2-0.9-2.7c-3.4-1.5-5.5-1.1-9.2-1.5c-0.9,0-0.1-0.2,0.2-0.2c5.3-0.2,9.1-0.6,14,0.7
				c1.1,0.3,1.5,0.5,2.2,1.3c1.1,1.1,0.5,2.2-0.5,3c-0.1,0,0,0.1,0.1,0.1c0.9-0.1,2-0.5,2.7-0.1c0.4,0.3,0.4,0.9,0.8,1.1
				C41.3,13.2,41.8,13.6,41.9,13.9C42,14,42,14,41.9,13.9z"/>
		</g>
		<path fill="#FFFFFF" d="M14.8,30v6.1c0,2.1,1.7,3.9,3.9,3.9h22.7c2.1,0,3.9-1.7,3.9-3.9V30H14.8z M20.6,36.5
			c-1.5,0-2.7-0.1-2.7-1.2h1.5c0,0.4,0.4,0.4,1.2,0.4c0.7,0,1.1,0,1.1-0.3c0-0.3-0.1-0.3-0.8-0.3L20.2,35c-1.4-0.1-2.3-0.1-2.3-1
			c0-1,1.1-1,2.6-1c1.3,0,2.5,0,2.5,0.9v0.1h-1.5c0-0.3-0.4-0.3-1-0.3c-0.8,0-1.1,0-1.1,0.2c0,0.3,0.2,0.3,0.6,0.3l1,0.1
			c1.7,0.1,2.1,0.2,2.1,1C23.2,35.9,23.1,36.5,20.6,36.5z M29.3,36.4h-1.2l-1.2-2.3l-1.1,2.3h-1.1L23.2,33h1.1l1,2.3h0l0.9-2.3h1.2
			l1.1,2.3h0l0.9-2.3h1.1L29.3,36.4z M32.3,36.4h-1.3V33h1.3V36.4z M37.1,35h-3v1.4h-1.2V33h4.2v0.7H34v0.6h3.1V35z M42.2,33.7h-1.7
			v2.7h-1.3v-2.7h-1.7V33h4.6V33.7z"/>
	</g>
</g>
</svg>
